<svg width="97" height="97" viewBox="0 0 97 97" fill="none" xmlns="http://www.w3.org/2000/svg">
<circle cx="48.9746" cy="48.043" r="48" fill="#FAF8FF"/>
<path fill-rule="evenodd" clip-rule="evenodd" d="M38.6314 33.8207C38.6314 31.0234 39.7426 28.3407 41.7206 26.3627C43.6986 24.3847 46.3814 23.2734 49.1787 23.2734C51.976 23.2734 54.6588 24.3847 56.6368 26.3627C58.6148 28.3407 59.726 31.0234 59.726 33.8207C59.726 36.6181 58.6148 39.3008 56.6368 41.2788C54.6588 43.2568 51.976 44.3681 49.1787 44.3681C46.3814 44.3681 43.6986 43.2568 41.7206 41.2788C39.7426 39.3008 38.6314 36.6181 38.6314 33.8207ZM38.6314 49.6417C35.1348 49.6417 31.7813 51.0307 29.3088 53.5033C26.8363 55.9758 25.4473 59.3292 25.4473 62.8258C25.4473 64.9238 26.2807 66.9359 27.7642 68.4194C29.2477 69.9029 31.2598 70.7363 33.3577 70.7363H64.9997C67.0977 70.7363 69.1097 69.9029 70.5932 68.4194C72.0767 66.9359 72.9102 64.9238 72.9102 62.8258C72.9102 59.3292 71.5211 55.9758 69.0486 53.5033C66.5761 51.0307 63.2227 49.6417 59.726 49.6417H38.6314Z" fill="#2E2E31"/>
</svg>
