<svg width="35" height="35" viewBox="0 0 35 35" fill="none" xmlns="http://www.w3.org/2000/svg">
<rect x="0.974609" y="0.0429688" width="34.0001" height="34.0001" rx="17.0001" fill="white"/>
<path d="M22.9183 10.3081H25.9615C27.0174 10.3081 27.8814 11.148 27.8814 12.1747V23.3746C27.8814 24.4012 27.0174 25.2412 25.9615 25.2412H10.6016C9.54563 25.2412 8.68164 24.4012 8.68164 23.3746V12.1747C8.68164 11.148 9.54563 10.3081 10.6016 10.3081H13.6448L14.8256 9.04807C15.1904 8.6654 15.7088 8.44141 16.2464 8.44141H20.3167C20.5824 8.44157 20.8451 8.4956 21.0881 8.60006C21.3311 8.70452 21.549 8.8571 21.7279 9.04807L22.9183 10.3081Z" fill="#B63457"/>
<path d="M18.2816 21.6413C20.2698 21.6413 21.8816 20.0296 21.8816 18.0414C21.8816 16.0532 20.2698 14.4414 18.2816 14.4414C16.2934 14.4414 14.6816 16.0532 14.6816 18.0414C14.6816 20.0296 16.2934 21.6413 18.2816 21.6413Z" fill="white"/>
<path d="M18.2847 20.4406C19.6102 20.4406 20.6847 19.3661 20.6847 18.0406C20.6847 16.7151 19.6102 15.6406 18.2847 15.6406C16.9593 15.6406 15.8848 16.7151 15.8848 18.0406C15.8848 19.3661 16.9593 20.4406 18.2847 20.4406Z" fill="#B63457"/>
</svg>
