<svg width="56" height="56" viewBox="0 0 56 56" fill="none" xmlns="http://www.w3.org/2000/svg">
<g clip-path="url(#clip0_1042_40536)">
<path d="M9.36804 41.013L4.83984 20.4099L6.53789 17.9192L17.066 26.5229L28.1644 13.2969L38.3485 26.5229L51.1104 17.9192L47.2917 41.013H9.36804Z" fill="#FFBB5C"/>
<path d="M51.9114 12.7089C50.939 12.7089 50.0063 13.0952 49.3187 13.7829C48.6311 14.4705 48.2448 15.4031 48.2448 16.3756C48.2461 16.8919 48.3577 17.4019 48.572 17.8716L45.0117 20.7197L41.8996 13.9482C41.7506 13.6256 41.5234 13.3453 41.2385 13.1328C40.9537 12.9203 40.6203 12.7823 40.2686 12.7314C39.9168 12.6805 39.558 12.7182 39.2246 12.8413C38.8912 12.9643 38.5938 13.1687 38.3594 13.4358L33.6954 18.7882L30.7685 14.2672C31.2531 13.7439 31.5745 13.0907 31.6934 12.3874C31.8123 11.6842 31.7236 10.9616 31.4381 10.308C31.1525 9.6545 30.6826 9.09841 30.0858 8.70789C29.489 8.31737 28.7913 8.10938 28.0781 8.10938C27.3649 8.10938 26.6672 8.31737 26.0704 8.70789C25.4736 9.09841 25.0037 9.6545 24.7181 10.308C24.4326 10.9616 24.3438 11.6842 24.4628 12.3874C24.5817 13.0907 24.9031 13.7439 25.3877 14.2672L22.4608 18.7919L17.7958 13.4386C17.5615 13.1715 17.264 12.9672 16.9306 12.8443C16.5971 12.7214 16.2383 12.6838 15.8866 12.7349C15.5349 12.786 15.2016 12.9241 14.9169 13.1369C14.6323 13.3496 14.4053 13.6301 14.2566 13.9528L11.1399 20.7233L7.58417 17.8716C7.79847 17.4019 7.91004 16.8919 7.91142 16.3756C7.9147 15.6605 7.70883 14.9601 7.31915 14.3606C6.92947 13.761 6.37299 13.2885 5.71821 13.0012C5.06343 12.7138 4.33892 12.6242 3.63386 12.7434C2.9288 12.8625 2.27396 13.1852 1.74995 13.6717C1.22594 14.1583 0.855616 14.7874 0.684572 15.4817C0.513527 16.176 0.549224 16.9052 0.787266 17.5794C1.02531 18.2537 1.45531 18.8436 2.02434 19.2767C2.59337 19.7097 3.2766 19.9669 3.98992 20.0166L7.91142 41.2099V45.7089C7.91142 46.4383 8.20115 47.1377 8.71688 47.6535C9.2326 48.1692 9.93207 48.4589 10.6614 48.4589H45.4948C46.2241 48.4589 46.9236 48.1692 47.4393 47.6535C47.955 47.1377 48.2448 46.4383 48.2448 45.7089V41.2099L52.1663 20.0166C53.1114 19.9496 53.9937 19.5184 54.6273 18.814C55.261 18.1096 55.5967 17.1868 55.5637 16.2398C55.5306 15.2929 55.1315 14.3957 54.4503 13.7371C53.7691 13.0785 52.8589 12.7099 51.9114 12.7089ZM46.5654 40.2089H9.59075L5.793 19.6866C6.01966 19.5801 6.23469 19.4505 6.43467 19.2997L15.0312 26.1747C15.6862 26.6992 16.5002 26.9849 17.3393 26.9851C17.5349 26.9852 17.7302 26.9692 17.9233 26.9374C18.433 26.854 18.9197 26.665 19.3521 26.3824C19.7845 26.0998 20.153 25.73 20.434 25.2966L26.9304 15.2554C27.6723 15.5255 28.4857 15.5255 29.2276 15.2554L35.7249 25.2975C36.0058 25.7307 36.3742 26.1004 36.8065 26.3828C37.2387 26.6652 37.7252 26.8541 38.2348 26.9374C38.4278 26.9692 38.6231 26.9852 38.8187 26.9851C39.6579 26.9844 40.4721 26.6986 41.1278 26.1747L49.7233 19.2997C49.9233 19.4505 50.1383 19.5801 50.365 19.6866L46.5654 40.2089ZM39.7408 14.6412C39.7739 14.6045 39.8156 14.5765 39.8621 14.5598C39.9087 14.5431 39.9586 14.5381 40.0075 14.5454C40.0565 14.5526 40.1028 14.5719 40.1425 14.6014C40.1822 14.6309 40.2139 14.6698 40.2349 14.7146L43.5349 21.8994L39.9792 24.7411C39.7767 24.9038 39.5423 25.0222 39.2912 25.0884C39.04 25.1547 38.7777 25.1674 38.5213 25.1258C38.265 25.0841 38.0202 24.989 37.803 24.8466C37.5857 24.7042 37.4008 24.5177 37.2603 24.2992L34.7285 20.3869L39.7408 14.6412ZM28.0781 9.95891C28.4407 9.95891 28.7951 10.0664 29.0966 10.2679C29.3981 10.4693 29.6331 10.7557 29.7719 11.0907C29.9106 11.4257 29.9469 11.7943 29.8762 12.1499C29.8055 12.5055 29.6308 12.8322 29.3744 13.0886C29.1181 13.345 28.7914 13.5196 28.4358 13.5904C28.0801 13.6611 27.7115 13.6248 27.3765 13.486C27.0415 13.3473 26.7552 13.1123 26.5537 12.8108C26.3523 12.5093 26.2448 12.1548 26.2448 11.7922C26.2448 11.306 26.4379 10.8397 26.7817 10.4959C27.1255 10.1521 27.5919 9.95891 28.0781 9.95891ZM15.9213 14.7146C15.9422 14.6699 15.9739 14.6311 16.0134 14.6016C16.053 14.5721 16.0992 14.5529 16.148 14.5455C16.1968 14.5382 16.2466 14.543 16.2931 14.5595C16.3396 14.5761 16.3812 14.6038 16.4144 14.6403L21.4249 20.3897L18.894 24.3011C18.7536 24.5196 18.5688 24.7062 18.3516 24.8487C18.1343 24.9911 17.8896 25.0863 17.6332 25.1281C17.3768 25.1698 17.1145 25.1572 16.8633 25.091C16.6121 25.0248 16.3777 24.9065 16.1752 24.7438L12.6194 21.9022L15.9213 14.7146ZM2.41142 16.3756C2.41142 16.013 2.51894 15.6585 2.72039 15.357C2.92184 15.0555 3.20817 14.8206 3.54317 14.6818C3.87817 14.543 4.24679 14.5067 4.60242 14.5775C4.95805 14.6482 5.28472 14.8228 5.54112 15.0792C5.79751 15.3356 5.97212 15.6623 6.04286 16.0179C6.1136 16.3735 6.07729 16.7422 5.93853 17.0772C5.79977 17.4122 5.56479 17.6985 5.2633 17.8999C4.96181 18.1014 4.60735 18.2089 4.24475 18.2089C3.75852 18.2089 3.29221 18.0158 2.94839 17.6719C2.60457 17.3281 2.41142 16.8618 2.41142 16.3756ZM46.4114 45.7089C46.4114 45.952 46.3148 46.1852 46.1429 46.3571C45.971 46.529 45.7379 46.6256 45.4948 46.6256H10.6614C10.4183 46.6256 10.1851 46.529 10.0132 46.3571C9.84133 46.1852 9.74475 45.952 9.74475 45.7089V42.0422H46.4114V45.7089ZM51.9114 18.2089C51.5488 18.2089 51.1944 18.1014 50.8929 17.8999C50.5914 17.6985 50.3564 17.4122 50.2176 17.0772C50.0789 16.7422 50.0426 16.3735 50.1133 16.0179C50.1841 15.6623 50.3587 15.3356 50.6151 15.0792C50.8714 14.8228 51.1981 14.6482 51.5537 14.5775C51.9094 14.5067 52.278 14.543 52.613 14.6818C52.948 14.8206 53.2343 15.0555 53.4358 15.357C53.6372 15.6585 53.7448 16.013 53.7448 16.3756C53.7448 16.8618 53.5516 17.3281 53.2078 17.6719C52.864 18.0158 52.3976 18.2089 51.9114 18.2089Z" fill="#2E2E31"/>
</g>
<defs>
<clipPath id="clip0_1042_40536">
<rect width="55" height="55" fill="white" transform="translate(0.578125 0.792969)"/>
</clipPath>
</defs>
</svg>
