<svg width="97" height="91" viewBox="0 0 97 91" fill="none" xmlns="http://www.w3.org/2000/svg">
<g clip-path="url(#clip0_1042_40209)">
<path d="M94.3687 16.1922C94.3687 23.8441 88.18 30.0328 80.5281 30.0328C72.8762 30.0328 66.6875 23.8441 66.6875 16.1922C66.6875 8.54026 72.8762 2.35156 80.5281 2.35156C88.18 2.35156 94.3687 8.54026 94.3687 16.1922Z" fill="white"/>
<path d="M80.5303 31.8067C71.9189 31.8067 64.8906 24.8024 64.8906 16.167C64.8906 7.53161 71.8949 0.527344 80.5303 0.527344C89.1657 0.527344 96.1699 7.53161 96.1699 16.167C96.1699 24.8024 89.1657 31.8067 80.5303 31.8067ZM80.5303 4.12542C73.8858 4.12542 68.4887 9.52255 68.4887 16.167C68.4887 22.8115 73.8858 28.2326 80.5303 28.2326C87.1747 28.2326 92.5959 22.8354 92.5959 16.167C92.5959 9.49856 87.1987 4.12542 80.5303 4.12542Z" fill="#2E2E31"/>
<path d="M80.5298 16.1914L41.4546 62.3428L2.35547 16.1914H80.5298Z" fill="white"/>
<path d="M41.4554 64.1434C40.9277 64.1434 40.424 63.9036 40.0882 63.5198L1.013 17.3444C0.557241 16.8167 0.461292 16.0731 0.749139 15.4494C1.03699 14.8258 1.68464 14.418 2.38027 14.418H80.5306C81.2262 14.418 81.8499 14.8258 82.1617 15.4494C82.4496 16.0731 82.3536 16.8167 81.8979 17.3444L42.8227 63.5198C42.4869 63.9276 41.9832 64.1434 41.4554 64.1434ZM6.21822 17.9681L41.4314 59.5859L76.6686 17.9681H6.21822Z" fill="#2E2E31"/>
<path d="M41.4553 90.551C40.4718 90.551 39.6562 89.7594 39.6562 88.7759V62.342C39.6562 61.3585 40.4478 60.543 41.4553 60.543C42.4628 60.543 43.2543 61.3345 43.2543 62.342V88.7759C43.2543 89.7594 42.4628 90.551 41.4553 90.551Z" fill="#2E2E31"/>
<path d="M54.647 90.5507H28.2131C27.2296 90.5507 26.4141 89.7591 26.4141 88.7756C26.4141 87.7921 27.2056 86.9766 28.2131 86.9766H54.647C55.6305 86.9766 56.446 87.7681 56.446 88.7756C56.446 89.7831 55.6545 90.5507 54.647 90.5507Z" fill="#2E2E31"/>
<path d="M14.082 30.0273L41.4514 62.3381L68.7969 30.0273H14.082Z" fill="#FF6666"/>
<path d="M41.4528 64.1388C40.9251 64.1388 40.4213 63.8989 40.0855 63.5151L12.7161 31.1803C12.2604 30.6526 12.1644 29.909 12.4523 29.2854C12.7401 28.6617 13.3878 28.2539 14.0834 28.2539H68.7982C69.4938 28.2539 70.1175 28.6617 70.4293 29.2854C70.7172 29.909 70.6212 30.6526 70.1655 31.1803L42.7961 63.5151C42.4603 63.9229 41.9565 64.1388 41.4288 64.1388H41.4528ZM17.9453 31.804L41.4528 59.5812L64.9603 31.804H17.9453Z" fill="#2E2E31"/>
<path d="M34.4251 31.8071C33.9694 31.8071 33.4896 31.6152 33.1298 31.2554L9.0227 6.40464C8.32707 5.68502 8.35106 4.55762 9.07067 3.88598C9.79029 3.19035 10.9177 3.21434 11.5893 3.93395L35.7205 28.7847C36.4161 29.5043 36.3921 30.6317 35.6725 31.3034C35.3367 31.6392 34.8809 31.8071 34.4251 31.8071Z" fill="#2E2E31"/>
<path d="M14.082 30.0352L41.4514 62.3459L68.7969 30.0352H14.082Z" fill="#FF6666"/>
<path d="M41.4528 64.1427C40.9251 64.1427 40.4213 63.9028 40.0855 63.519L12.7161 31.1843C12.2604 30.6565 12.1644 29.9129 12.4523 29.2893C12.7401 28.6656 13.3878 28.2578 14.0834 28.2578H68.7982C69.4938 28.2578 70.1175 28.6656 70.4293 29.2893C70.7172 29.9129 70.6212 30.6565 70.1655 31.1843L42.7961 63.519C42.4603 63.9268 41.9565 64.1427 41.4288 64.1427H41.4528ZM17.9453 31.8079L41.4528 59.5851L64.9603 31.8079H17.9453Z" fill="#2E2E31"/>
<path d="M26.3182 37.9485L29.6284 43.1777L32.9627 37.9485L34.234 35.9336H25.0469L26.3182 37.9485Z" fill="white"/>
<path d="M41.6245 32.7656L38.3623 37.9469L37.043 39.9858H41.6245H46.2301L44.9108 37.9469L41.6245 32.7656Z" fill="white"/>
<path d="M50.3065 37.9485L53.6167 43.1777L56.9509 37.9485L58.2223 35.9336H49.0352L50.3065 37.9485Z" fill="white"/>
<path d="M37.043 46.3203L41.6245 53.5645L46.2301 46.3203H41.6245H37.043Z" fill="white"/>
</g>
<defs>
<clipPath id="clip0_1042_40209">
<rect width="95.565" height="90" fill="white" transform="translate(0.578125 0.550781)"/>
</clipPath>
</defs>
</svg>
