<svg width="101" height="94" viewBox="0 0 101 94" fill="none" xmlns="http://www.w3.org/2000/svg">
<g clip-path="url(#clip0_1042_40563)">
<path d="M86.1677 57.2721C86.1677 74.1016 74.3969 88.1818 58.6749 91.5769C56.2959 92.0976 53.8342 92.3684 51.3104 92.3684C48.7866 92.3684 46.3249 92.0976 43.9459 91.5769C28.2239 88.1818 16.4531 74.1016 16.4531 57.2721C16.4531 47.1285 20.7353 37.9847 27.5619 31.5903C32.0717 27.3621 37.6985 24.3211 43.9459 22.9673C46.3249 22.4466 48.7866 22.1758 51.3104 22.1758C53.8342 22.1758 56.2959 22.4466 58.6749 22.9673C64.9223 24.3211 70.5491 27.3621 75.0588 31.5903C81.8855 38.0056 86.1677 47.1285 86.1677 57.2721Z" fill="white"/>
<path d="M51.31 93.9328C48.7241 93.9328 46.1383 93.662 43.6145 93.1205C35.6087 91.3917 28.3269 86.8927 23.1138 80.4566C17.818 73.9373 14.9219 65.7099 14.9219 57.2743C14.9219 52.1088 15.9769 47.0891 18.0456 42.4027C20.0522 37.862 22.907 33.8421 26.5272 30.447C31.3265 25.948 37.2636 22.8237 43.6352 21.449C48.662 20.3659 53.9992 20.3659 59.0055 21.449C65.3977 22.8237 71.3141 25.948 76.1134 30.447C79.7336 33.8421 82.5884 37.862 84.595 42.4027C86.6637 47.0891 87.7187 52.1088 87.7187 57.2743C87.7187 65.7099 84.8019 73.9373 79.5267 80.4566C74.3137 86.8927 67.0319 91.3709 59.0261 93.1205C56.523 93.662 53.9372 93.9328 51.3306 93.9328H51.31ZM51.31 23.7402C48.931 23.7402 46.5727 23.9901 44.2764 24.49C38.4221 25.7606 33.0228 28.6141 28.6165 32.7382C25.3066 35.8416 22.7001 39.5283 20.859 43.6732C18.9558 47.9639 18.0042 52.5462 18.0042 57.2952C18.0042 65.0226 20.6728 72.5418 25.5135 78.4988C30.2922 84.3724 36.9533 88.4965 44.2764 90.0795C48.8689 91.0793 53.7717 91.0793 58.3642 90.0795C65.6873 88.4965 72.3691 84.3724 77.1271 78.4988C81.9678 72.5418 84.6364 65.0018 84.6364 57.2952C84.6364 52.5462 83.6848 47.9848 81.7816 43.6732C79.9405 39.5283 77.334 35.8416 74.0241 32.7382C69.6178 28.6141 64.1978 25.7606 58.3642 24.49C56.0679 23.9901 53.6889 23.7402 51.3306 23.7402H51.31Z" fill="#2E2E31"/>
<path d="M51.3093 23.741C50.4612 23.741 49.7578 23.0536 49.7578 22.1788V2.49574C49.7578 1.64177 50.4405 0.933594 51.3093 0.933594C52.1782 0.933594 52.8608 1.62094 52.8608 2.49574V22.1788C52.8608 23.0328 52.1782 23.741 51.3093 23.741Z" fill="#2E2E31"/>
<path d="M86.1645 58.8391H16.4499C15.6018 58.8391 14.8984 58.1518 14.8984 57.277C14.8984 56.4022 15.5811 55.7148 16.4499 55.7148H86.1645C87.0126 55.7148 87.716 56.4022 87.716 57.277C87.716 58.1518 87.0333 58.8391 86.1645 58.8391Z" fill="#2E2E31"/>
<path d="M51.3093 93.9328C50.4612 93.9328 49.7578 93.2455 49.7578 92.3915V22.178C49.7578 21.3241 50.4405 20.6367 51.3093 20.6367C52.1782 20.6367 52.8608 21.3241 52.8608 22.178V92.3707C52.8608 93.2246 52.1782 93.912 51.3093 93.912V93.9328Z" fill="#2E2E31"/>
<path d="M51.3093 93.9328C50.4612 93.9328 49.7578 93.2455 49.7578 92.3915V22.178C49.7578 21.3241 50.4405 20.6367 51.3093 20.6367C52.1782 20.6367 52.8608 21.3241 52.8608 22.178V92.3707C52.8608 93.2246 52.1782 93.912 51.3093 93.912V93.9328Z" fill="#2E2E31"/>
<path d="M41.4618 92.495C40.7792 92.495 40.1585 92.0368 39.9724 91.3494C39.3931 89.2041 38.8553 86.9963 38.3795 84.8092C37.3865 80.3103 36.6004 75.8113 36.0626 71.4372C35.4626 66.5425 35.1523 61.7727 35.1523 57.2529C35.1523 52.7331 35.4626 47.9633 36.0626 43.0686C36.6004 38.7154 37.3865 34.2164 38.3795 29.6966C38.8553 27.5096 39.3931 25.3017 39.9724 23.1564C40.1999 22.3232 41.0481 21.8442 41.8549 22.0525C42.6823 22.2816 43.1581 23.1356 42.9306 23.9479C42.372 26.0516 41.8342 28.1969 41.3584 30.3423C40.3861 34.758 39.6207 39.1528 39.1035 43.4227C38.5036 48.1924 38.214 52.8372 38.214 57.2113C38.214 61.5853 38.5036 66.2509 39.1035 70.9998C39.6207 75.2697 40.3861 79.6646 41.3584 84.0802C41.8342 86.2256 42.3514 88.3918 42.9306 90.4955C43.1581 91.3286 42.6617 92.1826 41.8549 92.3909C41.7307 92.4325 41.5859 92.4534 41.4618 92.4534V92.495Z" fill="#2E2E31"/>
<path d="M29.4877 86.1837C28.9085 86.1837 28.35 85.8504 28.081 85.288C27.5018 84.0591 26.964 82.8094 26.4882 81.5597C26.4882 81.5597 26.4882 81.5389 26.4882 81.518C24.916 77.5398 23.7368 73.3949 22.9714 69.2291C22.2474 65.2925 21.875 61.2517 21.875 57.2526C21.875 53.2535 22.2474 49.2336 22.9714 45.297C23.7368 41.0896 24.9366 36.9447 26.5088 32.9664C26.9846 31.7375 27.5225 30.4878 28.1017 29.2381C28.1845 29.0715 28.2879 28.9257 28.412 28.8007C29.0119 28.1966 29.9842 28.1966 30.5841 28.8007C31.0599 29.3006 31.1634 30.0296 30.8738 30.6128C30.3359 31.7792 29.8187 32.9664 29.3843 34.112C27.8742 37.9236 26.7571 41.8603 26.0124 45.8594C25.3297 49.6085 24.978 53.441 24.978 57.2526C24.978 61.0643 25.3297 64.8968 26.0124 68.6459C26.7571 72.645 27.8949 76.6025 29.3843 80.3933C29.3843 80.3933 29.3843 80.4141 29.3843 80.4349C29.8394 81.6013 30.3566 82.7886 30.8944 83.955C31.2461 84.7257 30.9151 85.6629 30.1497 86.017C29.9429 86.1212 29.7153 86.1628 29.4877 86.1628V86.1837Z" fill="#2E2E31"/>
<path d="M61.5486 92.3915C61.4245 92.3915 61.2797 92.3915 61.1556 92.329C60.3281 92.0999 59.8523 91.2459 60.0592 90.4336C60.6177 88.3716 61.1349 86.2679 61.59 84.1433C62.5623 79.7277 63.3277 75.3328 63.8449 71.0629C64.4448 66.2932 64.7344 61.6484 64.7344 57.2744C64.7344 52.9003 64.4448 48.2347 63.8449 43.4858C63.3277 39.2159 62.5623 34.8211 61.59 30.4054C61.1349 28.3017 60.6177 26.1772 60.0592 24.1151C59.8316 23.282 60.3281 22.428 61.1556 22.2197C61.983 21.9906 62.8312 22.4905 63.0381 23.3236C63.5966 25.4273 64.1345 27.5935 64.6103 29.7389C65.6032 34.2379 66.3893 38.7368 66.9272 43.1109C67.5271 48.0056 67.8374 52.7754 67.8374 57.2952C67.8374 61.815 67.5271 66.5848 66.9272 71.4795C66.3893 75.8535 65.6032 80.3317 64.6103 84.8515C64.1345 87.0177 63.5966 89.1839 63.0381 91.2876C62.8519 91.9749 62.2313 92.4331 61.5486 92.4331V92.3915Z" fill="#2E2E31"/>
<path d="M73.6921 85.7279C72.844 85.7279 72.1406 85.0405 72.1406 84.1657C72.1406 83.9366 72.182 83.7283 72.2854 83.52C72.7612 82.4994 73.1956 81.458 73.6094 80.4166C75.1195 76.6258 76.2366 72.6683 76.9813 68.6692C77.664 64.92 78.0157 61.0876 78.0157 57.2759C78.0157 53.4643 77.664 49.611 76.9813 45.8826C76.2366 41.8835 75.1195 37.9261 73.6094 34.1353C73.6094 34.1353 73.6094 34.1144 73.6094 34.0936C73.2163 33.073 72.7612 32.0524 72.3061 31.0318C71.9544 30.2403 72.3061 29.3239 73.0715 28.9698C73.8369 28.6157 74.7678 28.9698 75.1195 29.7404C75.616 30.8235 76.0711 31.9274 76.5055 32.9897C76.5055 32.9897 76.5055 33.0105 76.5055 33.0314C78.0777 37.0096 79.2569 41.1545 80.0223 45.3203C80.7463 49.2361 81.1187 53.2768 81.1187 57.2759C81.1187 61.275 80.7463 65.3158 80.0223 69.2524C79.2569 73.439 78.057 77.6047 76.4848 81.583C76.0504 82.6661 75.5953 83.7492 75.1195 84.8114C74.892 85.353 74.3334 85.7487 73.7128 85.7487L73.6921 85.7279Z" fill="#2E2E31"/>
<path d="M17.9198 48.7756C17.2371 48.7756 16.6165 48.3173 16.4304 47.63C16.2028 46.7968 16.6993 45.9429 17.5061 45.7346C19.6782 45.1305 21.9124 44.589 24.1259 44.0891C28.5942 43.0893 33.0626 42.2979 37.4068 41.7563C42.2061 41.1523 46.8813 40.8398 51.3083 40.8398H51.4738C55.9422 40.8398 60.6794 41.1523 65.5615 41.7563C69.9057 42.2979 74.3741 43.0893 78.8424 44.0891C80.9111 44.5473 83.0212 45.0681 85.0899 45.6304C85.9173 45.8596 86.3931 46.6927 86.1863 47.5258C85.9587 48.359 85.1106 48.8381 84.3038 48.6298C82.2765 48.0882 80.2078 47.5675 78.1805 47.1301C73.8156 46.1512 69.4506 45.3805 65.1892 44.8598C60.4519 44.2557 55.8387 43.9641 51.4945 43.9641H51.329C47.0261 43.9641 42.475 44.2766 37.7998 44.8598C33.559 45.4013 29.1734 46.1512 24.8085 47.1301C22.6364 47.6092 20.4643 48.1507 18.3129 48.7339C18.1887 48.7756 18.0439 48.7964 17.9198 48.7964V48.7756Z" fill="#2E2E31"/>
<path d="M24.2495 36.6971C23.8564 36.6971 23.4634 36.5513 23.1531 36.2389C22.5531 35.6349 22.5531 34.6559 23.1531 34.0519C23.2772 33.9269 23.422 33.8228 23.5875 33.7395C24.8287 33.1563 26.0906 32.6147 27.3318 32.1148C31.283 30.5319 35.4203 29.3238 39.5784 28.5531C43.4261 27.8241 47.3773 27.47 51.2871 27.4492H51.4526C55.4452 27.4492 59.4377 27.8241 63.3268 28.5531C67.4849 29.3238 71.6222 30.5319 75.5734 32.1148C75.5941 32.1148 75.6148 32.1148 75.6355 32.1357C76.6698 32.5522 77.7249 33.0105 78.7592 33.4895C79.5246 33.8436 79.8763 34.7601 79.5246 35.5516C79.1729 36.3431 78.2627 36.6763 77.4766 36.3222C76.463 35.864 75.4493 35.4266 74.4356 35.01C74.415 35.01 74.3943 35.01 74.3736 34.9892C70.6086 33.4895 66.7195 32.3648 62.7683 31.615C59.0654 30.9276 55.259 30.5735 51.4526 30.5735H51.2871C47.5635 30.5735 43.7985 30.9276 40.1369 31.615C36.1651 32.3648 32.2346 33.4895 28.4696 35.01C27.2904 35.4891 26.0906 36.0098 24.9321 36.5513C24.7253 36.6555 24.477 36.718 24.2495 36.718V36.6971Z" fill="#2E2E31"/>
<path d="M51.4948 73.7286H51.3293C46.9023 73.7286 42.2271 73.4162 37.4278 72.8121C33.0835 72.2706 28.6152 71.4791 24.1468 70.4793C21.892 69.9794 19.6578 69.4171 17.527 68.8339C16.6996 68.6047 16.2238 67.7508 16.4513 66.9176C16.6789 66.0845 17.527 65.6054 18.3338 65.8345C20.4232 66.3969 22.5953 66.9385 24.8295 67.4383C29.1944 68.4173 33.5593 69.188 37.8208 69.7087C42.496 70.2919 47.0471 70.5835 51.35 70.6043H51.5155C55.8597 70.6043 60.4729 70.2919 65.2101 69.7087C69.4509 69.1671 73.8365 68.4173 78.2014 67.4383C80.2287 66.9801 82.2974 66.4802 84.3247 65.9179C85.1522 65.6887 86.0004 66.1886 86.2072 67.0218C86.4348 67.8549 85.9383 68.7089 85.1108 68.9172C83.0422 69.4796 80.9321 70.0003 78.8634 70.4585C74.3951 71.4583 69.9474 72.2498 65.5825 72.7913C60.7211 73.3953 55.9838 73.7078 51.4948 73.7078V73.7286Z" fill="#2E2E31"/>
<path d="M51.4964 87.099H51.3309C47.4004 87.099 43.4699 86.7241 39.6222 85.9951C35.4641 85.2244 31.3268 84.0164 27.3756 82.4334C27.3549 82.4334 27.3342 82.4334 27.3135 82.4126C26.093 81.9127 24.8518 81.3711 23.6313 80.8087C22.8659 80.4338 22.5349 79.5174 22.8865 78.7467C23.2589 77.9761 24.1691 77.6428 24.9345 77.9969C26.1137 78.5593 27.3342 79.08 28.5133 79.559C28.534 79.559 28.5547 79.559 28.5754 79.5799C32.3404 81.0795 36.2502 82.2043 40.1807 82.9541C43.8423 83.6414 47.6073 83.9955 51.3309 83.9955H51.4964C55.2821 83.9955 59.0884 83.6414 62.8121 82.9541C66.7839 82.2043 70.7144 81.0795 74.4794 79.559C75.4931 79.1425 76.5274 78.7051 77.5204 78.2468C78.2858 77.8927 79.2167 78.2468 79.5684 79.0175C79.92 79.7881 79.5684 80.7254 78.803 81.0795C77.7686 81.5586 76.6929 82.0168 75.6172 82.4542C71.666 84.0372 67.5287 85.2453 63.3706 86.0159C59.4608 86.7449 55.4683 87.1198 51.4964 87.1198V87.099Z" fill="#2E2E31"/>
<path d="M20.8569 28.3885C20.4846 28.3885 20.1122 28.2635 19.8226 27.9928L11.2376 20.182C10.5963 19.5988 10.5549 18.6199 11.1342 17.995C11.7134 17.3493 12.6857 17.3077 13.3063 17.8909L21.8913 25.7016C22.5326 26.2848 22.574 27.2638 21.9947 27.8886C21.6844 28.2219 21.2707 28.4093 20.8569 28.4093V28.3885Z" fill="#2E2E31"/>
<path d="M88.236 27.9909C87.8222 27.9909 87.3878 27.8243 87.0775 27.4702C86.519 26.8245 86.5603 25.8455 87.2016 25.2832L94.3593 18.8263C95.0006 18.2639 95.9728 18.3056 96.5314 18.9513C97.0899 19.5969 97.0486 20.5759 96.4073 21.1383L89.2496 27.5952C88.96 27.8659 88.5877 27.9909 88.2153 27.9909H88.236Z" fill="#2E2E31"/>
<path d="M99.3454 72.4388C99.3454 72.4388 99.242 72.4388 99.1799 72.4388L89.0641 71.3557C88.2159 71.2724 87.5953 70.5017 87.6988 69.6478C87.7815 68.7938 88.5469 68.1689 89.3951 68.2731L99.5109 69.3561C100.359 69.4395 100.98 70.2101 100.876 71.0641C100.794 71.8556 100.132 72.4596 99.3454 72.4596V72.4388Z" fill="#2E2E31"/>
<path d="M12.2725 42.2133C12.2725 42.2133 12.2311 42.2133 12.1898 42.2133L2.32216 41.7342C1.47401 41.6926 0.812028 40.9636 0.853401 40.1096C0.894775 39.2556 1.61881 38.5891 2.46697 38.6308L12.3346 39.1098C13.1827 39.1515 13.8447 39.8805 13.8033 40.7345C13.762 41.5676 13.0793 42.2133 12.2725 42.2133Z" fill="#2E2E31"/>
<path d="M91.8124 85.4988C91.5228 85.4988 91.2332 85.4155 90.9849 85.2488L84.3651 80.9998C83.6411 80.5415 83.4342 79.5834 83.8893 78.8544C84.3445 78.1254 85.296 77.9171 86.0201 78.3754L92.6399 82.6244C93.3639 83.0827 93.5708 84.0408 93.1157 84.7698C92.826 85.228 92.3296 85.4988 91.8124 85.4988Z" fill="#2E2E31"/>
<path d="M55.4906 16.3035L69.7167 26.6876C70.4932 27.2544 71.5463 27.2568 72.3254 26.6934L86.5974 16.3725L81.1175 33.1112C80.8184 34.0248 81.1417 35.0272 81.9182 35.594L96.1442 45.9781L78.5315 45.939C77.5701 45.9369 76.7167 46.5541 76.4176 47.4677L70.9378 64.2064L65.5323 47.4436C65.2373 46.5286 64.3866 45.9077 63.4252 45.9055L45.8125 45.8664L60.0844 35.5455C60.8635 34.9822 61.1911 33.9813 60.8961 33.0663L55.4906 16.3035Z" fill="white" stroke="#2E2E31" stroke-width="2.2191"/>
<mask id="mask0_1042_40563" style="mask-type:alpha" maskUnits="userSpaceOnUse" x="47" y="17" width="48" height="46">
<path d="M56.1121 18.9614C55.7822 17.9384 56.9541 17.091 57.8222 17.7247L70.3691 26.8831C70.7574 27.1665 71.284 27.1677 71.6735 26.886L84.2609 17.7833C85.1318 17.1535 86.3 18.0061 85.9655 19.0276L81.1325 33.7905C80.983 34.2474 81.1446 34.7485 81.5329 35.0319L94.0797 44.1904C94.9479 44.8241 94.498 46.1985 93.4231 46.1961L77.8893 46.1617C77.4086 46.1606 76.9819 46.4692 76.8323 46.926L71.9993 61.6889C71.6649 62.7104 70.2187 62.7072 69.8888 61.6842L65.1214 46.9C64.9739 46.4425 64.5485 46.1321 64.0679 46.131L48.534 46.0966C47.4592 46.0942 47.0153 44.7178 47.8863 44.0879L60.4737 34.9852C60.8632 34.7035 61.027 34.2031 60.8795 33.7456L56.1121 18.9614Z" fill="#FCC72C"/>
</mask>
<g mask="url(#mask0_1042_40563)">
<path d="M98.2346 42.6101L96.646 39.3979L93.1198 38.8823L95.677 36.3853L95.0671 32.854L93.2014 30.274L91.6328 33.4809L90.0442 30.2687L86.518 29.7531L89.0752 27.2562L88.4653 23.7249L88.0142 23.1011L82.0862 27.388L81.7591 29.2653L84.3121 31.7801L80.7752 32.2653L79.2066 35.4722L77.618 32.26L75.7327 31.9826L69.8047 36.2695L70.2557 36.8933L73.4183 38.5786L76.5906 36.9322L75.9758 40.4425L78.5287 42.9573L74.9918 43.4424L76.8576 46.0224L80.0202 47.7077L83.1924 46.0613L82.5776 49.5716L85.1305 52.0864L81.6141 52.5999L83.0288 54.5562L88.9569 50.2692L87.3159 50.031L89.8731 47.5341L89.2632 44.0028L92.4258 45.6881L95.5981 44.0417L95.3103 45.6747L101.238 41.3878L99.8237 39.4315L98.2346 42.6101ZM88.3531 38.4433L90.906 40.9581L87.3896 41.4717L85.8005 44.6502L84.212 41.438L80.6857 40.9224L83.2429 38.4255L82.6331 34.8941L85.7957 36.5794L88.968 34.933L88.3531 38.4433Z" fill="#FF6666"/>
<path d="M85.008 24.321L83.4194 21.1088L79.8932 20.5932L82.4504 18.0963L81.8405 14.5649L79.9748 11.985L78.4062 15.1919L76.8176 11.9797L73.2914 11.4641L75.8486 8.96715L75.2387 5.43581L74.7877 4.81208L68.8597 9.09897L68.5326 10.9763L71.0855 13.4911L67.5486 13.9762L65.98 17.1831L64.3915 13.971L62.5062 13.6936L56.5781 17.9805L57.0292 18.6042L60.1918 20.2895L63.3641 18.6431L62.7492 22.1534L65.3021 24.6682L61.7653 25.1534L63.631 27.7333L66.7936 29.4186L69.9659 27.7722L69.351 31.2825L71.9039 33.7973L68.3876 34.3108L69.8022 36.2671L75.7303 31.9802L74.0893 31.742L76.6465 29.245L76.0367 25.7137L79.1993 27.399L82.3716 25.7526L82.0838 27.3856L88.0118 23.0987L86.5971 21.1425L85.008 24.321ZM75.1265 20.1543L77.6794 22.6691L74.1631 23.1826L72.574 26.3611L70.9854 23.149L67.4592 22.6334L70.0164 20.1364L69.4065 16.6051L72.5691 18.2904L75.7414 16.644L75.1265 20.1543Z" fill="#FF6666"/>
<path d="M80.0275 55.7741L78.439 52.5619L74.9127 52.0463L77.4699 49.5494L76.8601 46.0181L74.9943 43.4381L73.4257 46.645L71.8372 43.4328L68.3109 42.9172L70.8681 40.4203L70.2583 36.8889L69.8072 36.2652L63.8792 40.5521L63.5521 42.4294L66.105 44.9442L62.5682 45.4294L60.9996 48.6363L59.411 45.4241L57.5257 45.1467L51.5977 49.4336L52.0487 50.0573L55.2113 51.7426L58.3836 50.0962L57.7687 53.6065L60.3217 56.1213L56.7848 56.6065L58.6505 59.1865L61.8131 60.8718L64.9854 59.2254L64.3705 62.7356L66.9235 65.2504L63.4071 65.764L64.8218 67.7202L70.7498 63.4333L69.1089 63.1951L71.6661 60.6982L71.0562 57.1668L74.2188 58.8521L77.3911 57.2057L77.1033 58.8387L83.0313 54.5518L81.6167 52.5956L80.0275 55.7741ZM70.146 51.6074L72.699 54.1222L69.1826 54.6357L67.5935 57.8143L66.0049 54.6021L62.4787 54.0865L65.0359 51.5895L64.426 48.0582L67.5886 49.7435L70.7609 48.0971L70.146 51.6074Z" fill="#FF6666"/>
<path d="M66.801 37.489L65.2124 34.2768L61.6862 33.7612L64.2434 31.2642L63.6335 27.7329L61.7678 25.1529L60.1992 28.3598L58.6106 25.1477L55.0844 24.632L57.6416 22.1351L57.0317 18.6038L56.5806 17.98L50.6526 22.2669L50.3255 24.1442L52.8785 26.659L49.3416 27.1442L47.773 30.3511L46.1844 27.1389L44.2991 26.8615L38.3711 31.1484L38.8222 31.7722L41.9848 33.4575L45.157 31.8111L44.5422 35.3214L47.0951 37.8362L43.5582 38.3213L45.424 40.9013L48.5866 42.5866L51.7589 40.9402L51.144 44.4505L53.6969 46.9653L50.1805 47.4788L51.5952 49.4351L57.5233 45.1481L55.8823 44.9099L58.4395 42.413L57.8297 38.8817L60.9923 40.567L64.1645 38.9206L63.8768 40.5536L69.8048 36.2667L68.3901 34.3104L66.801 37.489ZM56.9195 33.3222L59.4724 35.837L55.956 36.3506L54.3669 39.5291L52.7784 36.3169L49.2521 35.8013L51.8093 33.3044L51.1995 29.7731L54.3621 31.4584L57.5344 29.812L56.9195 33.3222Z" fill="#FF6666"/>
</g>
<path d="M61.4124 32.896L56.5309 17.7583L69.3779 27.1357C70.3485 27.8442 71.665 27.8471 72.6387 27.143L85.5272 17.8226L80.5786 32.9386C80.2047 34.0806 80.6087 35.3336 81.5794 36.0421L94.4263 45.4196L78.521 45.3843C77.3193 45.3816 76.2525 46.153 75.8786 47.2951L70.93 62.4111L66.0486 47.2733C65.6798 46.1296 64.6164 45.3534 63.4147 45.3508L47.5094 45.3155L60.3978 35.9951C61.3716 35.2909 61.7812 34.0398 61.4124 32.896Z" stroke="#2E2E31" stroke-width="3.32865"/>
</g>
<defs>
<clipPath id="clip0_1042_40563">
<rect width="100" height="93" fill="white" transform="translate(0.875 0.933594)"/>
</clipPath>
</defs>
</svg>
