<svg width="51" height="64" viewBox="0 0 51 64" fill="none" xmlns="http://www.w3.org/2000/svg">
<path d="M26.1094 39.2266H50.2012V58.4839C50.2012 59.7671 49.6914 60.9978 48.784 61.9052C47.8766 62.8126 46.6459 63.3224 45.3626 63.3224H26.1094V39.2346V39.2266Z" fill="#FF6666"/>
<path d="M0.742188 39.2266H24.8461V63.3304H5.5807C4.29745 63.3304 3.06675 62.8207 2.15936 61.9133C1.25196 61.0059 0.742188 59.7752 0.742188 58.4919V39.2266Z" fill="#C292F4"/>
<path d="M26.1016 13.8867H45.3629C46.6461 13.8867 47.8768 14.3965 48.7842 15.3039C49.6916 16.2113 50.2014 17.442 50.2014 18.7252V37.9906H26.1016V13.8867Z" fill="#FFBB5C"/>
<mask id="mask0_1_52167" style="mask-type:luminance" maskUnits="userSpaceOnUse" x="26" y="13" width="25" height="25">
<path d="M26.1016 13.8867H45.4839C46.7361 13.8867 47.937 14.3842 48.8225 15.2696C49.708 16.1551 50.2054 17.3561 50.2054 18.6083V37.9906H26.1016V13.8867Z" fill="white"/>
</mask>
<g mask="url(#mask0_1_52167)">
<path d="M25.8281 13.9492V14.2329L26.1158 13.9492H25.8281Z" fill="white" stroke="white" stroke-width="0.806419" stroke-miterlimit="10"/>
<path d="M45.5935 13.9492L25.8281 33.7146V34.279L46.158 13.9492H45.5935Z" fill="white" stroke="white" stroke-width="0.806419" stroke-miterlimit="10"/>
<path d="M37.5736 13.9492L25.8281 25.6947V26.2632L38.1421 13.9492H37.5736Z" fill="white" stroke="white" stroke-width="0.806419" stroke-miterlimit="10"/>
<path d="M29.5538 13.9492L25.8281 17.6749V18.2434L30.1223 13.9492H29.5538Z" fill="white" stroke="white" stroke-width="0.806419" stroke-miterlimit="10"/>
<path d="M49.8873 38.0063V37.7227L49.5996 38.0063H49.8873Z" fill="white" stroke="white" stroke-width="0.806419" stroke-miterlimit="10"/>
<path d="M46.1603 38.0011L49.886 34.2754V33.7109L45.5918 38.0011H46.1603Z" fill="white" stroke="white" stroke-width="0.806419" stroke-miterlimit="10"/>
<path d="M38.1427 38.0053L49.8882 26.2638V25.6953L37.5742 38.0053H38.1427Z" fill="white" stroke="white" stroke-width="0.806419" stroke-miterlimit="10"/>
<path d="M49.8846 17.6719L29.5508 38.0017H30.1193L49.8846 18.2404V17.6719Z" fill="white" stroke="white" stroke-width="0.806419" stroke-miterlimit="10"/>
</g>
<path d="M5.57667 13.8867H24.842V37.9906H0.742188V18.7252C0.742187 17.4427 1.25141 16.2126 2.15793 15.3053C3.06446 14.398 4.29412 13.8878 5.57667 13.8867Z" fill="#B2DD66"/>
<mask id="mask1_1_52167" style="mask-type:luminance" maskUnits="userSpaceOnUse" x="0" y="13" width="25" height="25">
<path d="M5.50435 13.8633H24.8383V37.9873H0.734375V18.6333C0.734375 17.3682 1.23692 16.1549 2.13147 15.2604C3.02601 14.3658 4.23927 13.8633 5.50435 13.8633Z" fill="white"/>
</mask>
<g mask="url(#mask1_1_52167)">
<path d="M0.734375 23.3477V25.9484V26.9806H3.0367L2.3835 25.9484L0.734375 23.3477Z" fill="white"/>
<path d="M0.734375 21.7265L3.0367 18.0977H0.734375V21.7265Z" fill="white"/>
<path d="M10.4863 18.0977L12.7887 21.7265L15.095 18.0977H12.7887H10.4863Z" fill="white"/>
<path d="M5.09813 25.9455L6.76339 28.5704L8.42865 25.9455L9.06572 24.9375H4.45703L5.09813 25.9455Z" fill="white"/>
<path d="M8.43208 13.8828H5.10156L6.76682 16.5117L8.43208 13.8828Z" fill="white"/>
<path d="M4.45703 21.7579H9.06572L6.76339 18.125L4.45703 21.7579Z" fill="white"/>
<path d="M12.7887 13.8828H11.1395L10.4863 14.915H12.7887H15.095L14.4378 13.8828H12.7887Z" fill="white"/>
<path d="M12.7887 23.3477L11.1395 25.9484L10.4863 26.9806H12.7887H15.095L14.4378 25.9484L12.7887 23.3477Z" fill="white"/>
<path d="M23.1923 13.8828L22.5391 14.915H24.8414V13.8828H23.1923Z" fill="white"/>
<path d="M24.8414 21.7265V18.0977H22.5391L24.8414 21.7265Z" fill="white"/>
<path d="M17.1489 25.9455L18.8142 28.5704L20.4794 25.9455L21.1165 24.9375H16.5078L17.1489 25.9455Z" fill="white"/>
<path d="M20.4848 13.8828H17.1543L18.8196 16.5117L20.4848 13.8828Z" fill="white"/>
<path d="M16.5078 21.7579H21.1165L18.8142 18.125L16.5078 21.7579Z" fill="white"/>
<path d="M0.734375 38.007H2.3835L0.734375 35.4062V38.007Z" fill="white"/>
<path d="M0.734375 33.797L3.0367 30.1641H0.734375V33.797Z" fill="white"/>
<path d="M11.1367 38.007H12.7858H14.435L12.7858 35.4062L11.1367 38.007Z" fill="white"/>
<path d="M10.4863 30.1641L12.7887 33.797L15.095 30.1641H12.7887H10.4863Z" fill="white"/>
<path d="M5.09813 38.0079H8.42865L9.06572 37.0039H4.45703L5.09813 38.0079Z" fill="white"/>
<path d="M4.45703 33.8164H9.06572L6.76339 30.1875L4.45703 33.8164Z" fill="white"/>
<path d="M22.5391 26.9806H24.8414V25.9484V23.3477L23.1923 25.9484L22.5391 26.9806Z" fill="white"/>
<path d="M24.8405 38.007V35.4062L23.1914 38.007H24.8405Z" fill="white"/>
<path d="M24.8414 33.797V30.1641H22.5391L24.8414 33.797Z" fill="white"/>
<path d="M17.1489 38.0079H20.4794L21.1165 37.0039H16.5078L17.1489 38.0079Z" fill="white"/>
<path d="M16.5078 33.8164H21.1165L18.8142 30.1875L16.5078 33.8164Z" fill="white"/>
</g>
<mask id="mask2_1_52167" style="mask-type:luminance" maskUnits="userSpaceOnUse" x="26" y="39" width="25" height="25">
<path d="M26.1016 39.2266H50.2054V58.6653C50.2054 59.9026 49.7139 61.0892 48.8391 61.9641C47.9642 62.8389 46.7776 63.3304 45.5403 63.3304H26.1016V39.2266Z" fill="white"/>
</mask>
<g mask="url(#mask2_1_52167)">
<path d="M49.3809 41.4384C49.3809 41.879 49.5559 42.3016 49.8674 42.6131C50.179 42.9246 50.6015 43.0997 51.0421 43.0997V39.7813C50.6022 39.7812 50.1803 39.9557 49.8688 40.2664C49.5574 40.5771 49.3819 40.9986 49.3809 41.4384Z" fill="white"/>
<path d="M49.3809 54.1611C49.3809 54.6017 49.5559 55.0242 49.8674 55.3358C50.179 55.6473 50.6015 55.8223 51.0421 55.8223V52.5039C50.6022 52.5039 50.1803 52.6784 49.8688 52.989C49.5574 53.2997 49.3819 53.7212 49.3809 54.1611Z" fill="white"/>
<path d="M49.3809 60.5206C49.3809 60.9612 49.5559 61.3837 49.8674 61.6953C50.179 62.0068 50.6015 62.1818 51.0421 62.1818V58.8594C50.6015 58.8594 50.179 59.0344 49.8674 59.3459C49.5559 59.6575 49.3809 60.08 49.3809 60.5206Z" fill="white"/>
<path d="M49.3809 47.8058C49.3809 48.2463 49.5559 48.6689 49.8674 48.9804C50.179 49.292 50.6015 49.467 51.0421 49.467V46.1445C50.6015 46.1445 50.179 46.3196 49.8674 46.6311C49.5559 46.9426 49.3809 47.3652 49.3809 47.8058Z" fill="white"/>
<path d="M31.7086 39.9364C32.1492 39.9364 32.5717 39.7614 32.8833 39.4499C33.1948 39.1383 33.3698 38.7158 33.3698 38.2752C33.3698 38.2147 33.3698 38.1542 33.3698 38.0938H30.0675C30.0408 38.3259 30.0635 38.561 30.1342 38.7838C30.205 39.0065 30.3221 39.2116 30.4779 39.3857C30.6338 39.5599 30.8247 39.699 31.0383 39.7939C31.2518 39.8888 31.483 39.9374 31.7167 39.9364H31.7086Z" fill="white"/>
<path d="M44.5914 39.9364C45.032 39.9364 45.4545 39.7614 45.7661 39.4499C46.0776 39.1383 46.2526 38.7158 46.2526 38.2752C46.2558 38.2148 46.2558 38.1542 46.2526 38.0938H42.9504C42.9236 38.3259 42.9463 38.561 43.017 38.7838C43.0878 39.0065 43.2049 39.2116 43.3608 39.3857C43.5166 39.5599 43.7076 39.699 43.9211 39.7939C44.1346 39.8888 44.3658 39.9374 44.5995 39.9364H44.5914Z" fill="white"/>
<path d="M26.9249 60.5206C26.9249 60.08 26.7499 59.6575 26.4383 59.3459C26.1268 59.0344 25.7043 58.8594 25.2637 58.8594V62.1818C25.7043 62.1818 26.1268 62.0068 26.4383 61.6953C26.7499 61.3837 26.9249 60.9612 26.9249 60.5206Z" fill="white"/>
<path d="M26.9249 41.4425C26.9249 41.0019 26.7499 40.5793 26.4383 40.2678C26.1268 39.9563 25.7043 39.7812 25.2637 39.7812V43.0997C25.7036 43.0997 26.1255 42.9252 26.4369 42.6145C26.7483 42.3039 26.9238 41.8824 26.9249 41.4425Z" fill="white"/>
<path d="M26.9249 47.8058C26.9249 47.3652 26.7499 46.9426 26.4383 46.6311C26.1268 46.3196 25.7043 46.1445 25.2637 46.1445V49.4831C25.4832 49.4831 25.7005 49.4396 25.9031 49.3551C26.1058 49.2706 26.2896 49.1468 26.4441 48.9909C26.5985 48.8349 26.7206 48.6498 26.8031 48.4464C26.8856 48.243 26.927 48.0253 26.9249 47.8058Z" fill="white"/>
<path d="M26.9249 54.1612C26.9249 53.7206 26.7499 53.2981 26.4383 52.9866C26.1268 52.675 25.7043 52.5 25.2637 52.5V55.8224C25.7043 55.8224 26.1268 55.6474 26.4383 55.3359C26.7499 55.0243 26.9249 54.6018 26.9249 54.1612Z" fill="white"/>
<path d="M44.5944 62.3828C44.1856 62.3833 43.7914 62.5346 43.4871 62.8076C43.1829 63.0806 42.99 63.4562 42.9453 63.8626H46.2476C46.2029 63.4556 46.0094 63.0794 45.7043 62.8063C45.3992 62.5331 45.0039 62.3824 44.5944 62.3828Z" fill="white"/>
<path d="M31.7058 62.3828C31.297 62.3833 30.9027 62.5346 30.5985 62.8076C30.2942 63.0806 30.1013 63.4562 30.0566 63.8626H33.3589C33.3142 63.4556 33.1207 63.0794 32.8156 62.8063C32.5105 62.5331 32.1153 62.3824 31.7058 62.3828Z" fill="white"/>
<path d="M38.1534 55.8264C39.0709 55.8264 39.8146 55.0826 39.8146 54.1651C39.8146 53.2477 39.0709 52.5039 38.1534 52.5039C37.2359 52.5039 36.4922 53.2477 36.4922 54.1651C36.4922 55.0826 37.2359 55.8264 38.1534 55.8264Z" fill="white"/>
<path d="M38.1534 62.1818C39.0709 62.1818 39.8146 61.4381 39.8146 60.5206C39.8146 59.6031 39.0709 58.8594 38.1534 58.8594C37.2359 58.8594 36.4922 59.6031 36.4922 60.5206C36.4922 61.4381 37.2359 62.1818 38.1534 62.1818Z" fill="white"/>
<path d="M31.7042 46.3029C32.6217 46.3029 33.3654 45.5592 33.3654 44.6417C33.3654 43.7242 32.6217 42.9805 31.7042 42.9805C30.7867 42.9805 30.043 43.7242 30.043 44.6417C30.043 45.5592 30.7867 46.3029 31.7042 46.3029Z" fill="white"/>
<path d="M38.1534 49.467C39.0709 49.467 39.8146 48.7232 39.8146 47.8058C39.8146 46.8883 39.0709 46.1445 38.1534 46.1445C37.2359 46.1445 36.4922 46.8883 36.4922 47.8058C36.4922 48.7232 37.2359 49.467 38.1534 49.467Z" fill="white"/>
<path d="M31.7042 52.6623C32.6217 52.6623 33.3654 51.9185 33.3654 51.0011C33.3654 50.0836 32.6217 49.3398 31.7042 49.3398C30.7867 49.3398 30.043 50.0836 30.043 51.0011C30.043 51.9185 30.7867 52.6623 31.7042 52.6623Z" fill="white"/>
<path d="M31.7042 59.0256C32.6217 59.0256 33.3654 58.2818 33.3654 57.3644C33.3654 56.4469 32.6217 55.7031 31.7042 55.7031C30.7867 55.7031 30.043 56.4469 30.043 57.3644C30.043 58.2818 30.7867 59.0256 31.7042 59.0256Z" fill="white"/>
<path d="M44.5948 52.6623C45.5123 52.6623 46.256 51.9185 46.256 51.0011C46.256 50.0836 45.5123 49.3398 44.5948 49.3398C43.6774 49.3398 42.9336 50.0836 42.9336 51.0011C42.9336 51.9185 43.6774 52.6623 44.5948 52.6623Z" fill="white"/>
<path d="M44.5948 46.3029C45.5123 46.3029 46.256 45.5592 46.256 44.6417C46.256 43.7242 45.5123 42.9805 44.5948 42.9805C43.6774 42.9805 42.9336 43.7242 42.9336 44.6417C42.9336 45.5592 43.6774 46.3029 44.5948 46.3029Z" fill="white"/>
<path d="M38.1534 43.1037C39.0709 43.1037 39.8146 42.3599 39.8146 41.4425C39.8146 40.525 39.0709 39.7812 38.1534 39.7812C37.2359 39.7812 36.4922 40.525 36.4922 41.4425C36.4922 42.3599 37.2359 43.1037 38.1534 43.1037Z" fill="white"/>
<path d="M44.5948 59.0256C45.5123 59.0256 46.256 58.2818 46.256 57.3644C46.256 56.4469 45.5123 55.7031 44.5948 55.7031C43.6774 55.7031 42.9336 56.4469 42.9336 57.3644C42.9336 58.2818 43.6774 59.0256 44.5948 59.0256Z" fill="white"/>
</g>
<mask id="mask3_1_52167" style="mask-type:luminance" maskUnits="userSpaceOnUse" x="0" y="39" width="25" height="25">
<path d="M0.742188 39.2266H24.8461V63.3304H5.58877C4.30551 63.3304 3.07482 62.8207 2.16742 61.9133C1.26002 61.0059 0.75025 59.7752 0.75025 58.4919V39.2266H0.742188Z" fill="white"/>
</mask>
<g mask="url(#mask3_1_52167)">
<path d="M2.6788 57.9517C2.68213 57.8422 2.6631 57.7332 2.62289 57.6313C2.58269 57.5294 2.52214 57.4367 2.44494 57.359L-0.546875 54.3672V56.6534L0.751458 57.9517L-0.546875 59.2501V61.5363L2.44494 58.5444C2.52214 58.4667 2.58269 58.3741 2.62289 58.2722C2.6631 58.1702 2.68213 58.0612 2.6788 57.9517Z" fill="white"/>
<path d="M2.44494 45.197C2.59574 45.0357 2.67962 44.8231 2.67962 44.6023C2.67962 44.3815 2.59574 44.1689 2.44494 44.0076L-0.546875 41.0117V43.2979L0.751458 44.5963L-0.546875 45.8946V48.1808L2.44494 45.197Z" fill="white"/>
<path d="M21.3434 38.5064L26.1376 43.3006V41.0103L23.053 37.9258H21.1055C21.1044 38.0335 21.1248 38.1404 21.1657 38.2402C21.2065 38.3399 21.267 38.4304 21.3434 38.5064Z" fill="white"/>
<path d="M21.3403 50.6923C21.2635 50.7674 21.2025 50.8571 21.1608 50.9562C21.1191 51.0552 21.0977 51.1615 21.0977 51.2689C21.0977 51.3764 21.1191 51.4827 21.1608 51.5817C21.2025 51.6807 21.2635 51.7704 21.3403 51.8455L26.1345 56.6397V54.3616L23.0499 51.277L26.1345 48.1924V45.9062L21.3403 50.6923Z" fill="white"/>
<path d="M21.3434 64.0403C21.2674 64.1158 21.2073 64.2056 21.1664 64.3046C21.1256 64.4036 21.1049 64.5098 21.1055 64.6168H23.053L26.1375 61.5323V59.2461L21.3434 64.0403Z" fill="white"/>
<path d="M20.7648 44.6073L14.6723 50.6918C14.5955 50.7669 14.5345 50.8566 14.4928 50.9556C14.4512 51.0546 14.4297 51.1609 14.4297 51.2684C14.4297 51.3758 14.4512 51.4821 14.4928 51.5811C14.5345 51.6802 14.5955 51.7699 14.6723 51.845L20.7648 57.9496L14.6723 64.042C14.5964 64.1175 14.5362 64.2074 14.4954 64.3064C14.4545 64.4054 14.4338 64.5115 14.4344 64.6186H16.3819L22.4583 58.5423C22.6091 58.3809 22.693 58.1684 22.693 57.9475C22.693 57.7267 22.6091 57.5141 22.4583 57.3528L16.3819 51.2764L22.4583 45.2001C22.615 45.0377 22.7026 44.8209 22.7026 44.5952C22.7026 44.3696 22.615 44.1528 22.4583 43.9904L16.3819 37.9141H14.4344C14.4338 38.0212 14.4545 38.1273 14.4954 38.2263C14.5362 38.3253 14.5964 38.4152 14.6723 38.4907L20.7648 44.6073Z" fill="white"/>
<path d="M16.0224 57.9533C16.0257 57.8438 16.0067 57.7348 15.9665 57.6329C15.9263 57.531 15.8657 57.4383 15.7885 57.3606L9.71213 51.2842L15.7885 45.2079C15.9452 45.0455 16.0328 44.8287 16.0328 44.6031C16.0328 44.3774 15.9452 44.1606 15.7885 43.9982L9.71213 37.9219H7.75657C7.75595 38.029 7.77667 38.1351 7.81751 38.2341C7.85836 38.3331 7.91851 38.423 7.99446 38.4985L14.087 44.591L7.99849 50.6956C7.92168 50.7707 7.86066 50.8603 7.81899 50.9594C7.77732 51.0584 7.75586 51.1647 7.75586 51.2721C7.75586 51.3796 7.77732 51.4859 7.81899 51.5849C7.86066 51.6839 7.92168 51.7736 7.99849 51.8487L14.095 57.9533L7.99849 64.0458C7.92254 64.1213 7.86239 64.2112 7.82154 64.3102C7.7807 64.4092 7.75998 64.5153 7.7606 64.6224H9.7081L15.7845 58.546C15.8624 58.4687 15.9237 58.3762 15.9646 58.2742C16.0055 58.1723 16.0252 58.0631 16.0224 57.9533Z" fill="white"/>
<path d="M9.37247 57.9489C9.3758 57.8394 9.35678 57.7304 9.31657 57.6285C9.27636 57.5266 9.21581 57.4339 9.13861 57.3562L3.04208 51.2758L9.11845 45.1994C9.27514 45.0371 9.36271 44.8203 9.36271 44.5946C9.36271 44.369 9.27514 44.1522 9.11845 43.9898L3.04208 37.9336H1.09458C1.09396 38.0407 1.11468 38.1468 1.15552 38.2458C1.19637 38.3448 1.25652 38.4347 1.33247 38.5102L7.42497 44.6027L1.33247 50.6911C1.25567 50.7662 1.19464 50.8559 1.15297 50.955C1.11131 51.054 1.08984 51.1603 1.08984 51.2677C1.08984 51.3752 1.11131 51.4815 1.15297 51.5805C1.19464 51.6795 1.25567 51.7692 1.33247 51.8443L7.42497 57.9489L1.33247 64.0414C1.25652 64.1169 1.19637 64.2068 1.15552 64.3058C1.11468 64.4048 1.09396 64.5109 1.09458 64.618H3.04208L9.11845 58.5416C9.1993 58.4656 9.26358 58.3738 9.30729 58.2718C9.351 58.1698 9.37319 58.0599 9.37247 57.9489Z" fill="white"/>
</g>
<path d="M26.4872 11.7156C26.9589 8.64719 27.8742 5.03846 30.1161 2.78452C32.4547 0.429777 35.9787 3.0708 34.7247 6.0102C33.3216 9.30442 29.1484 10.7197 25.8944 10.9374C25.088 10.9898 25.088 12.2237 25.8944 12.1672C29.7169 11.9092 33.4748 10.3891 35.5715 7.03839C36.9988 4.76025 36.2852 1.76843 33.5554 0.929758C28.0234 -0.779851 25.8945 7.44966 25.2775 11.4132C25.1767 12.1793 26.3662 12.5019 26.4872 11.7156Z" fill="#2E2E31"/>
<path d="M24.8828 11.7156C24.411 8.64719 23.4957 5.03846 21.2539 2.78452C18.9153 0.429777 15.3912 3.0708 16.6452 6.0102C18.0484 9.30442 22.2216 10.7197 25.4755 10.9374C26.2819 10.9898 26.2819 12.2237 25.4755 12.1672C21.6531 11.9092 17.8951 10.3891 15.7985 7.03839C14.3711 4.76025 15.0848 1.76843 17.8145 0.929758C23.3465 -0.779851 25.4755 7.44966 26.0924 11.4132C26.1932 12.1793 25.0037 12.5019 24.8828 11.7156Z" fill="#2E2E31"/>
</svg>
