<svg width="82" height="86" viewBox="0 0 82 86" fill="none" xmlns="http://www.w3.org/2000/svg">
<path d="M33.4809 33.582L4.27374 72.7646C1.93067 75.8964 2.37144 80.3274 5.27128 82.9488C8.17112 85.5703 12.6021 85.5703 15.5019 82.9488L51.6455 50.0299L33.4809 33.582Z" fill="#FF6666"/>
<mask id="mask0_1042_40234" style="mask-type:luminance" maskUnits="userSpaceOnUse" x="0" y="32" width="50" height="53">
<path d="M31.6957 32.8164L2.48858 72.0222C0.145513 75.154 0.586287 79.585 3.48612 82.2064C6.38596 84.8279 10.8169 84.8279 13.7167 82.2064L49.8603 49.2875L31.6957 32.8396V32.8164Z" fill="white"/>
</mask>
<g mask="url(#mask0_1042_40234)">
<path d="M36.2375 71.8073C35.8388 71.8073 35.4764 72.0248 35.2227 72.3148L37.8684 74.5981L45.6971 74.0545L48.3791 70.9375L36.2375 71.8073Z" fill="white"/>
<path d="M58.3445 44.7665L42.9047 45.8538C42.506 45.8538 42.1436 46.0712 41.8899 46.3612C41.6362 46.6511 41.4912 47.0136 41.5274 47.4122L42.6148 62.852L27.175 63.9393C26.7763 63.9393 26.4139 64.1568 26.1602 64.4467L28.8059 66.7301L44.2095 65.6428C44.6082 65.6428 44.9706 65.4253 45.2243 65.0991C45.478 64.8092 45.623 64.4467 45.623 64.0118L44.5357 48.6083L59.9392 47.521C60.3379 47.521 60.7003 47.3035 60.954 46.9773C61.2077 46.6874 61.3527 46.3249 61.3527 45.89L60.2654 30.4865L57.6196 28.2031C57.3659 28.4931 57.2209 28.8555 57.2572 29.2542L58.3445 44.694V44.7665Z" fill="white"/>
<path d="M36.2009 57.2749C36.4546 56.985 36.5995 56.6225 36.5995 56.1876L35.5122 40.7841L50.9158 39.6968C51.3144 39.6968 51.6769 39.4793 51.9306 39.1531C52.1843 38.8631 52.3293 38.5007 52.3293 38.0658L51.2419 22.6623L48.5962 20.3789C48.3425 20.6689 48.1975 21.0313 48.2337 21.43L49.321 36.8698L33.8813 37.9571C33.4826 37.9571 33.1201 38.1745 32.8664 38.4645C32.6127 38.7544 32.4678 39.1169 32.504 39.5155L33.5913 54.9553L18.1515 56.0426C17.7529 56.0426 17.3904 56.2601 17.1367 56.55L19.7825 58.8334L35.186 57.7461C35.5847 57.7461 35.9471 57.5286 36.2009 57.2024V57.2749Z" fill="white"/>
<path d="M27.1774 49.4077C27.4311 49.1178 27.5761 48.7553 27.5761 48.3204L26.4888 32.9169L41.8923 31.8296C42.291 31.8296 42.6534 31.6121 42.9071 31.2859C43.1608 30.996 43.3058 30.6335 43.3058 30.1986L42.2185 14.7951L39.5727 12.5117C39.319 12.8017 39.174 13.1641 39.2103 13.5628L40.2976 29.0026L24.8578 30.0899C24.4591 30.0899 24.0967 30.3073 23.843 30.5973C23.5893 30.8872 23.4443 31.2497 23.4806 31.6483L24.5679 47.0881L9.1281 48.1754C8.72942 48.1754 8.36699 48.3929 8.11328 48.6828L10.7591 50.9662L26.1626 49.8789C26.5613 49.8789 26.9237 49.6614 27.1774 49.3352V49.4077Z" fill="white"/>
<path d="M26.9578 80.8641L11.518 81.9514C11.1193 81.9514 10.7569 82.1689 10.5032 82.4588C10.2495 82.7488 10.1045 83.1112 10.1407 83.5099L11.228 98.9497L-4.21174 100.037C-4.61042 100.037 -4.97286 100.254 -5.22656 100.544L-2.58078 102.828L12.8228 101.74C13.2214 101.74 13.5839 101.523 13.8376 101.197C14.0913 100.907 14.2363 100.544 14.2363 100.109L13.1489 84.7059L28.5525 83.6186C28.9512 83.6186 29.3136 83.4012 29.5673 83.075C29.821 82.785 29.966 82.4226 29.966 81.9877L28.8787 66.5841L26.2329 64.3008C25.9792 64.5907 25.8342 64.9532 25.8705 65.3518L26.9578 80.7916V80.8641Z" fill="white"/>
<path d="M4.81414 93.3686C5.06784 93.0787 5.21282 92.7163 5.21282 92.2813L4.12551 76.8778L19.529 75.7905C19.9277 75.7905 20.2902 75.573 20.5439 75.2468C20.7976 74.9569 20.9425 74.5945 20.9425 74.1595L19.8552 58.756L17.2095 56.4727C16.9557 56.7626 16.8108 57.125 16.847 57.5237L17.9343 72.9635L2.49455 74.0508C2.09587 74.0508 1.73343 74.2683 1.47973 74.5582C1.22602 74.8482 1.08105 75.2106 1.11729 75.6093L2.2046 91.0491L-13.2352 92.1364C-13.6339 92.1364 -13.9963 92.3538 -14.25 92.6438L-11.6042 94.9271L3.79931 93.8398C4.19799 93.8398 4.56043 93.6223 4.81414 93.2962V93.3686Z" fill="white"/>
<path d="M-4.2093 85.5054C-3.95559 85.2154 -3.81062 84.853 -3.81062 84.4181L-4.89793 69.0145L10.5056 67.9272C10.9043 67.9272 11.2667 67.7098 11.5204 67.3836C11.7741 67.0936 11.9191 66.7312 11.9191 66.2963L10.8318 50.8927L8.18602 48.6094C7.93231 48.8993 7.78733 49.2618 7.82358 49.6604L8.91089 65.1002L-6.52889 66.1875C-6.92757 66.1875 -7.29001 66.405 -7.54371 66.6949C-7.79742 66.9849 -7.94239 67.3473 -7.90615 67.746L-6.81884 83.1858L-22.2586 84.2731C-22.6573 84.2731 -23.0197 84.4905 -23.2734 84.7805L-20.6277 87.0638L-5.22412 85.9765C-4.82544 85.9765 -4.46301 85.7591 -4.2093 85.4329V85.5054Z" fill="white"/>
</g>
<path d="M10.6305 85.7297C8.31067 85.7297 6.014 84.8946 4.15811 83.2242C0.469515 79.8836 -0.0872525 74.3391 2.90538 70.349L32.1125 31.1432C32.4605 30.6792 32.9709 30.4008 33.5276 30.3312C34.0844 30.2848 34.6644 30.4704 35.082 30.8416L53.2465 47.2895C53.6641 47.6838 53.9193 48.2174 53.9193 48.7742C53.9193 49.3309 53.6873 49.8877 53.2697 50.2589L17.1262 83.1778C15.2703 84.8482 12.9736 85.7065 10.6537 85.7065L10.6305 85.7297ZM34.0148 35.3189L6.13 72.7384C4.39009 75.0583 4.71488 78.2829 6.87235 80.2316C9.02983 82.1803 12.2545 82.1803 14.3887 80.2316L48.8852 48.7974L34.0148 35.3189Z" fill="#2E2E31"/>
<path d="M75.3076 38.8001C74.6812 39.728 74.0085 40.5864 73.2429 41.4215C70.7838 44.1358 67.8144 46.1308 64.613 47.4068C62.4323 48.2651 60.1588 48.7987 57.839 48.9611C56.7718 49.0539 55.6815 49.0539 54.6144 48.9611C53.64 48.8915 52.6657 48.7755 51.6913 48.5899L43.4326 41.0967L33.9211 32.4668C33.8515 32.1884 33.7587 31.9332 33.6891 31.6549C33.3644 30.4021 33.1556 29.103 33.0396 27.8039C32.8076 25.02 33.0628 22.1898 33.8283 19.4523C34.7795 16.1349 36.473 13.0031 38.932 10.2889C39.6976 9.45371 40.5096 8.68815 41.3447 7.96899C45.4741 4.53558 50.5778 2.77248 55.7047 2.67969C55.7279 2.67969 55.7511 2.67969 55.7743 2.67969C56.8414 2.67969 57.8854 2.72608 58.9525 2.86528C59.1845 2.88848 59.4165 2.93487 59.6485 2.95807C63.9634 3.63083 68.1392 5.53313 71.619 8.68815C71.8278 8.87374 72.0366 9.08253 72.2454 9.26812C75.5628 12.4927 77.6971 16.5061 78.6714 20.7283C78.7642 21.1922 78.857 21.633 78.9266 22.097C79.0194 22.7002 79.1122 23.3265 79.1586 23.9297C79.205 24.3937 79.2282 24.8344 79.2282 25.2984C79.3442 29.9613 78.045 34.6707 75.3076 38.7305V38.8001Z" fill="white"/>
<path d="M56.0752 51.0484C55.5416 51.0484 55.008 51.0484 54.4977 51.002C53.4305 50.9324 52.3634 50.7932 51.3195 50.6077C50.9483 50.5381 50.6235 50.3757 50.3451 50.1205L32.5749 34.0206C32.2965 33.7654 32.1109 33.4638 31.9949 33.1158C31.9021 32.8143 31.8325 32.5127 31.7398 32.2111C31.3918 30.8656 31.1598 29.4736 31.0206 28.0353C30.7654 24.9731 31.0438 21.9109 31.9021 18.9646C32.9693 15.2528 34.8252 11.889 37.4466 8.9892C38.2586 8.08445 39.1401 7.2493 40.0681 6.48374C44.4294 2.88795 49.9507 0.846462 55.6344 0.730469C55.6808 0.730469 55.7272 0.730469 55.7504 0.730469C56.8871 0.730469 58.0239 0.776866 59.1838 0.916058C59.5086 0.962456 59.7406 0.985654 59.9726 1.03205C64.7979 1.77441 69.2984 3.93189 72.9638 7.2493C73.219 7.48129 73.4278 7.69008 73.6366 7.87567C77.1396 11.2859 79.5523 15.5776 80.6194 20.3334C80.7354 20.8437 80.8282 21.3309 80.8978 21.8413C81.0138 22.514 81.0834 23.1636 81.1298 23.8132C81.1762 24.2771 81.1994 24.7875 81.1994 25.2979C81.3154 30.5408 79.8538 35.5981 76.9308 39.9131C76.258 40.8874 75.5157 41.8617 74.6805 42.7665C72.0591 45.6663 68.9041 47.847 65.3083 49.2621C62.9652 50.1901 60.4829 50.77 57.9311 50.9556C57.3047 51.002 56.6552 51.0252 56.0056 51.0252L56.0752 51.0484ZM52.6186 46.7335C53.3377 46.8495 54.0337 46.9423 54.7529 46.9887C55.7272 47.0583 56.7247 47.0351 57.6991 46.9887C59.8334 46.8263 61.9213 46.3623 63.8931 45.5735C66.909 44.3904 69.5536 42.5345 71.7575 40.1218C72.4535 39.3563 73.0798 38.5443 73.6366 37.7092C76.0725 34.0902 77.3252 29.8448 77.2092 25.4371C77.2092 25.0195 77.186 24.5787 77.1396 24.1843C77.0932 23.6276 77.0236 23.0708 76.9308 22.4908C76.9308 22.4908 76.9308 22.4676 76.9308 22.4444C76.8612 22.0269 76.7916 21.6325 76.6988 21.2381C75.7941 17.2711 73.7758 13.6521 70.8295 10.7987C70.644 10.6131 70.4584 10.4507 70.2496 10.2651C67.1873 7.48129 63.406 5.69499 59.3462 5.04543C59.1142 4.99903 58.9054 4.97583 58.6966 4.95263C57.7223 4.83664 56.7479 4.76704 55.7968 4.79024H55.7504C50.9715 4.85984 46.3085 6.57654 42.6431 9.61557C41.8544 10.2651 41.112 10.9611 40.4393 11.7266C38.2354 14.1625 36.6579 16.9696 35.7763 20.1014C35.0804 22.5836 34.8252 25.1355 35.0572 27.7105C35.15 28.8937 35.3588 30.0768 35.6603 31.2135C35.6603 31.2831 35.7067 31.3527 35.7067 31.4223L52.6186 46.7567V46.7335Z" fill="#2E2E31"/>
<path d="M58.175 1.67738L32.1875 30.3477L35.1783 33.0586L61.1658 4.38831L58.175 1.67738Z" fill="#2E2E31"/>
<path d="M70.7567 7.98268L41.9336 39.7812L44.9244 42.4922L73.7475 10.6936L70.7567 7.98268Z" fill="#2E2E31"/>
<path d="M56.0983 50.3288L53.1289 47.6378L77.4411 20.7969L78.9258 22.1424H80.9441V22.908L79.5986 24.3927L56.0983 50.3288Z" fill="#2E2E31"/>
<path d="M57.0654 1.24655L54.3555 4.23828L77.7907 25.4657L80.5006 22.474L57.0654 1.24655Z" fill="#2E2E31"/>
<path d="M42.7216 6.55124L40.0117 9.54297L73.9696 40.3017L76.6795 37.31L42.7216 6.55124Z" fill="#2E2E31"/>
<path d="M35.1904 18.0239L32.4805 21.0156L63.2575 48.8932L65.9673 45.9014L35.1904 18.0239Z" fill="#2E2E31"/>
</svg>
