<svg width="92" height="91" viewBox="0 0 92 91" fill="none" xmlns="http://www.w3.org/2000/svg">
<g clip-path="url(#clip0_1042_40186)">
<path d="M81.0915 31.3633H10.9141V89.1116H81.0915V31.3633Z" fill="white"/>
<path d="M81.1145 90.9563H10.9126C9.90547 90.9563 9.07031 90.1457 9.07031 89.114V31.3657C9.07031 30.3586 9.8809 29.5234 10.9126 29.5234H81.09C82.0971 29.5234 82.9322 30.334 82.9322 31.3657V89.114C82.9322 90.1211 82.1216 90.9563 81.09 90.9563H81.1145ZM12.7548 87.2964H79.2723V33.2079H12.7548V87.2964Z" fill="#2E2E31"/>
<path d="M89.9567 31.3711H2.09375V48.8847H89.9567V31.3711Z" fill="white"/>
<path d="M89.9307 50.7244H2.09225C1.08515 50.7244 0.25 49.9138 0.25 48.9067V31.393C0.25 30.3859 1.06059 29.5508 2.09225 29.5508H89.9552C90.9623 29.5508 91.7975 30.3614 91.7975 31.393V48.9067C91.7975 49.9138 90.9869 50.7244 89.9552 50.7244H89.9307ZM3.90993 47.0644H88.113V33.2107H3.90993V47.0644Z" fill="#2E2E31"/>
<path d="M57.6571 48.8789H34.3711V89.1382H57.6571V48.8789Z" fill="#FF6666"/>
<path d="M57.6556 90.9544H34.3696C33.3625 90.9544 32.5273 90.1438 32.5273 89.1121V48.8774C32.5273 47.8703 33.3379 47.0352 34.3696 47.0352H57.6556C58.6627 47.0352 59.4979 47.8457 59.4979 48.8774V89.1121C59.4979 90.1192 58.6873 90.9544 57.6556 90.9544ZM36.1873 87.2944H55.8134V50.7197H36.1873V87.2944Z" fill="#2E2E31"/>
<path d="M58.4442 23.332C55.3112 24.8606 51.8056 25.7798 48.5373 26.1972C49.7488 19.5348 51.962 12.3008 56.6296 7.59211C59.2878 4.91148 62.6037 5.07779 64.9103 6.74211C67.2222 8.41028 68.5158 11.5808 67.0908 14.9358C65.4729 18.7411 62.2421 21.4791 58.4442 23.332ZM46.577 29.7947C46.7463 29.8072 46.9167 29.796 47.0806 29.7572C55.949 29.0429 64.6276 25.43 69.5299 17.6049C71.2495 14.8655 71.6813 11.6851 70.8582 8.92956C70.0336 6.169 67.9522 3.84662 64.6777 2.83442C61.3538 1.80348 58.5221 2.2671 56.1329 3.70146C53.7537 5.12978 51.8308 7.50959 50.2854 10.2845C47.1953 15.8333 45.5699 23.0444 44.8485 27.6987L44.8484 27.6995C44.8109 27.9466 44.8216 28.1765 44.8701 28.3867C44.9056 28.7314 45.036 29.0673 45.2721 29.328C45.5601 29.646 45.9872 29.8314 46.5276 29.798L46.529 29.7979C46.545 29.7968 46.561 29.7958 46.577 29.7947Z" fill="#2E2E31" stroke="#2E2E31" stroke-width="0.5"/>
<path d="M44.9685 29.7572C36.1 29.0429 27.4214 25.43 22.5191 17.6049C20.7996 14.8654 20.3677 11.6851 21.1908 8.92956C22.0154 6.16896 24.0969 3.84656 27.3714 2.83439L44.9685 29.7572ZM44.9685 29.7572C45.1324 29.796 45.3028 29.8072 45.472 29.7947C45.488 29.7958 45.5041 29.7968 45.5201 29.7979L45.5212 29.798C46.057 29.8315 46.4812 29.6453 46.7676 29.3276C46.9859 29.0854 47.1142 28.7782 47.1605 28.4593C47.2243 28.2299 47.2425 27.9754 47.2006 27.6995L47.2005 27.6987C46.4791 23.0444 44.8537 15.8333 41.7636 10.2845C40.2182 7.50959 38.2953 5.12978 35.9161 3.70146C33.527 2.26713 30.6953 1.8035 27.3715 2.83435L44.9685 29.7572ZM35.4194 7.59211C40.087 12.3008 42.3002 19.5348 43.5117 26.1972C40.2435 25.7798 36.7378 24.8606 33.6048 23.332C29.8069 21.4791 26.5761 18.7411 24.9582 14.9357C23.5333 11.5808 24.8269 8.41026 27.1388 6.74211C29.4454 5.07779 32.7612 4.91148 35.4194 7.59211Z" fill="#2E2E31" stroke="#2E2E31" stroke-width="0.5"/>
<path d="M41.5669 53.7194C43.0653 53.7194 44.2689 52.5158 44.2689 51.0174C44.2689 50.9192 44.2689 50.8209 44.2689 50.7227H38.9141C38.9141 50.7227 38.9141 50.9192 38.9141 51.0174C38.9141 52.5158 40.1177 53.7194 41.616 53.7194H41.5669Z" fill="white"/>
<path d="M50.4832 84.3008C48.9849 84.3008 47.7812 85.5044 47.7812 87.0027C47.7812 87.101 47.7812 87.1993 47.7812 87.2975H53.1361C53.1361 87.2975 53.1361 87.101 53.1361 87.0027C53.1361 85.5044 51.9325 84.3008 50.4341 84.3008H50.4832Z" fill="white"/>
<path d="M50.4832 74.1289C48.9849 74.1289 47.7812 75.3325 47.7812 76.8309C47.7812 78.3292 48.9849 79.5328 50.4832 79.5328C51.9816 79.5328 53.1852 78.3292 53.1852 76.8309C53.1852 75.3325 51.9816 74.1289 50.4832 74.1289Z" fill="white"/>
<path d="M41.5692 58.6562C40.0708 58.6562 38.8672 59.8599 38.8672 61.3582C38.8672 62.8566 40.0708 64.0602 41.5692 64.0602C43.0675 64.0602 44.2711 62.8566 44.2711 61.3582C44.2711 59.8599 43.0675 58.6562 41.5692 58.6562Z" fill="white"/>
<path d="M50.4832 63.793C48.9849 63.793 47.7812 64.9966 47.7812 66.4949C47.7812 67.9933 48.9849 69.1969 50.4832 69.1969C51.9816 69.1969 53.1852 67.9933 53.1852 66.4949C53.1852 64.9966 51.9816 63.793 50.4832 63.793Z" fill="white"/>
<path d="M44.2597 71.6932C44.2621 70.201 43.0543 68.9894 41.562 68.987C40.0698 68.9847 38.8582 70.1925 38.8558 71.6848C38.8535 73.177 40.0613 74.3886 41.5535 74.391C43.0458 74.3933 44.2574 73.1855 44.2597 71.6932Z" fill="white"/>
<path d="M41.5692 79.3398C40.0708 79.3398 38.8672 80.5434 38.8672 82.0418C38.8672 83.5402 40.0708 84.7438 41.5692 84.7438C43.0675 84.7438 44.2711 83.5402 44.2711 82.0418C44.2711 80.5434 43.0675 79.3398 41.5692 79.3398Z" fill="white"/>
<path d="M50.4832 53.4492C48.9849 53.4492 47.7812 54.6528 47.7812 56.1512C47.7812 57.6495 48.9849 58.8531 50.4832 58.8531C51.9816 58.8531 53.1852 57.6495 53.1852 56.1512C53.1852 54.6528 51.9816 53.4492 50.4832 53.4492Z" fill="white"/>
</g>
<defs>
<clipPath id="clip0_1042_40186">
<rect width="91.5229" height="90" fill="white" transform="translate(0.25 0.957031)"/>
</clipPath>
</defs>
</svg>
