<svg width="354" height="82" viewBox="0 0 354 82" fill="none" xmlns="http://www.w3.org/2000/svg">
<g clip-path="url(#clip0_1042_97052)">
<path d="M89.0465 63.6679C87.5489 63.6679 86.4825 62.8057 85.8472 61.0812L70.8034 18.1283C70.4858 17.1299 70.5538 16.3131 71.0076 15.6778C71.4615 15.0424 72.2329 14.7248 73.3221 14.7248C74.7743 14.7248 75.7726 15.5189 76.3172 17.1072L89.1826 55.0229L102.388 17.3115C102.978 15.587 103.977 14.7248 105.384 14.7248C106.11 14.7248 106.677 14.9517 107.085 15.4055C107.539 15.8139 107.925 16.4492 108.243 17.3115L121.312 55.3632L134.518 17.1072C135.017 15.5189 135.993 14.7248 137.445 14.7248C138.398 14.7248 139.079 15.0424 139.487 15.6778C139.941 16.3131 140.009 17.1299 139.691 18.1283L124.58 61.0812C124.262 61.9434 123.854 62.6015 123.354 63.0553C122.901 63.4637 122.243 63.6679 121.38 63.6679C120.563 63.6679 119.905 63.4637 119.406 63.0553C118.907 62.6015 118.499 61.9434 118.181 61.0812L105.247 23.7101L92.1778 61.0812C91.8601 61.9434 91.4744 62.6015 91.0206 63.0553C90.5668 63.4637 89.9087 63.6679 89.0465 63.6679ZM158.751 63.804C153.532 63.804 149.402 62.2838 146.362 59.2433C143.321 56.1574 141.801 51.9824 141.801 46.7182C141.801 43.3146 142.482 40.3195 143.843 37.7328C145.205 35.1007 147.065 33.0813 149.425 31.6745C151.83 30.2223 154.598 29.4962 157.73 29.4962C162.222 29.4962 165.739 30.9484 168.281 33.8527C170.822 36.7117 172.093 40.6599 172.093 45.6971C172.093 47.1039 171.299 47.8073 169.71 47.8073H147.179C147.36 51.5739 148.449 54.4556 150.446 56.4524C152.443 58.4037 155.211 59.3794 158.751 59.3794C160.248 59.3794 161.769 59.1979 163.312 58.8349C164.855 58.4264 166.352 57.723 167.804 56.7246C168.848 56.0439 169.71 55.9078 170.391 56.3162C171.117 56.7246 171.48 57.36 171.48 58.2222C171.525 59.0391 171.072 59.7652 170.119 60.4005C168.621 61.4896 166.829 62.3292 164.741 62.9191C162.699 63.5091 160.702 63.804 158.751 63.804ZM157.866 33.5805C154.735 33.5805 152.261 34.5561 150.446 36.5075C148.631 38.4589 147.564 41.0229 147.247 44.1996H167.328C167.192 40.8414 166.307 38.232 164.673 36.3714C163.085 34.5108 160.816 33.5805 157.866 33.5805ZM190.147 63.804C186.88 63.804 184.384 62.8284 182.659 60.877C180.935 58.8802 180.072 55.9986 180.072 52.232V17.5157C180.072 15.6551 180.98 14.7248 182.795 14.7248C184.656 14.7248 185.586 15.6551 185.586 17.5157V51.8235C185.586 56.6793 187.515 59.1071 191.372 59.1071C191.781 59.1071 192.144 59.0844 192.461 59.0391C192.779 58.9937 193.097 58.971 193.414 58.971C193.914 58.9256 194.254 59.0391 194.435 59.3114C194.662 59.5836 194.776 60.1282 194.776 60.9451C194.776 62.488 194.004 63.3729 192.461 63.5998C192.098 63.6906 191.713 63.736 191.304 63.736C190.896 63.7814 190.51 63.804 190.147 63.804ZM204.775 63.736C201.78 63.736 200.283 62.193 200.283 59.1071V19.8301C200.283 16.7442 201.826 15.2013 204.912 15.2013H228.668C231.028 15.2013 232.208 16.3358 232.208 18.6048C232.208 20.9646 231.028 22.1445 228.668 22.1445H208.996V35.6907H227.239C229.599 35.6907 230.779 36.8252 230.779 39.0942C230.779 41.454 229.599 42.6339 227.239 42.6339H208.996V59.1071C208.996 62.193 207.589 63.736 204.775 63.736ZM247.319 63.8721C244.914 63.8721 242.759 63.4183 240.853 62.5107C238.992 61.5577 237.517 60.287 236.428 58.6987C235.384 57.1104 234.862 55.3178 234.862 53.3211C234.862 50.8705 235.498 48.9418 236.768 47.535C238.039 46.0829 240.104 45.0391 242.963 44.4038C245.822 43.7684 249.656 43.4508 254.467 43.4508H256.849V42.0213C256.849 39.7522 256.35 38.1185 255.352 37.1202C254.353 36.1218 252.674 35.6226 250.314 35.6226C248.998 35.6226 247.569 35.7814 246.026 36.0991C244.528 36.4168 242.94 36.9613 241.261 37.7328C240.172 38.232 239.264 38.3001 238.538 37.937C237.812 37.5286 237.313 36.9159 237.041 36.0991C236.814 35.2369 236.859 34.3746 237.177 33.5124C237.54 32.6502 238.243 32.0148 239.287 31.6064C241.374 30.7442 243.371 30.1315 245.277 29.7685C247.229 29.4054 248.998 29.2239 250.587 29.2239C255.442 29.2239 259.05 30.3584 261.41 32.6275C263.77 34.8511 264.95 38.3228 264.95 43.0424V59.3794C264.95 62.2838 263.634 63.736 261.002 63.736C258.324 63.736 256.985 62.2838 256.985 59.3794V57.8819C256.214 59.7425 254.989 61.2173 253.31 62.3065C251.63 63.3502 249.634 63.8721 247.319 63.8721ZM249.089 58.018C251.313 58.018 253.151 57.2465 254.603 55.7036C256.1 54.1606 256.849 52.2093 256.849 49.8495V48.3519H254.535C250.269 48.3519 247.297 48.6923 245.618 49.373C243.984 50.0083 243.167 51.1882 243.167 52.9127C243.167 54.4102 243.689 55.6355 244.733 56.5885C245.776 57.5415 247.229 58.018 249.089 58.018ZM277.807 23.0975C276.218 23.0975 274.97 22.7118 274.063 21.9403C273.201 21.1234 272.769 20.0116 272.769 18.6048C272.769 17.1526 273.201 16.0408 274.063 15.2693C274.97 14.4979 276.218 14.1121 277.807 14.1121C281.165 14.1121 282.844 15.6097 282.844 18.6048C282.844 21.5999 281.165 23.0975 277.807 23.0975ZM277.807 63.6679C276.445 63.6679 275.401 63.2595 274.675 62.4426C273.949 61.6258 273.586 60.4913 273.586 59.0391V34.057C273.586 30.9711 274.993 29.4281 277.807 29.4281C280.666 29.4281 282.095 30.9711 282.095 34.057V59.0391C282.095 60.4913 281.732 61.6258 281.006 62.4426C280.28 63.2595 279.213 63.6679 277.807 63.6679ZM295.293 63.736C292.389 63.736 290.936 62.2838 290.936 59.3794V33.6485C290.936 30.7895 292.321 29.3601 295.089 29.3601C297.857 29.3601 299.241 30.7895 299.241 33.6485V35.7587C300.875 31.856 304.369 29.6777 309.724 29.2239C311.675 28.997 312.765 30.1088 312.991 32.5594C313.218 34.9646 312.038 36.3033 309.452 36.5756L307.954 36.7117C302.372 37.2563 299.581 40.1153 299.581 45.2887V59.3794C299.581 62.2838 298.152 63.736 295.293 63.736ZM328.095 75.9888C326.552 75.9888 325.485 75.4215 324.895 74.287C324.305 73.1525 324.328 71.8591 324.963 70.4069L328.844 61.83L317.203 35.01C316.568 33.5124 316.568 32.1964 317.203 31.0618C317.839 29.9273 319.087 29.3601 320.947 29.3601C321.991 29.3601 322.831 29.6096 323.466 30.1088C324.101 30.5626 324.669 31.4476 325.168 32.7636L333.336 53.185L341.709 32.6955C342.208 31.4249 342.798 30.5626 343.479 30.1088C344.16 29.6096 345.067 29.3601 346.202 29.3601C347.654 29.3601 348.675 29.9273 349.265 31.0618C349.855 32.1964 349.832 33.4897 349.197 34.9419L332.656 72.7214C332.066 73.992 331.43 74.8543 330.75 75.3081C330.069 75.7619 329.184 75.9888 328.095 75.9888Z" fill="#2E2E31"/>
<path d="M37.1094 40.2266H61.2012V59.4839C61.2012 60.7671 60.6914 61.9978 59.784 62.9052C58.8766 63.8126 57.6459 64.3224 56.3626 64.3224H37.1094V40.2346V40.2266Z" fill="#FF6666"/>
<path d="M11.7422 40.2266H35.8461V64.3304H16.5807C15.2974 64.3304 14.0668 63.8207 13.1594 62.9133C12.252 62.0059 11.7422 60.7752 11.7422 59.4919V40.2266Z" fill="#C292F4"/>
<path d="M37.1016 14.8867H56.3629C57.6461 14.8867 58.8768 15.3965 59.7842 16.3039C60.6916 17.2113 61.2014 18.442 61.2014 19.7252V38.9906H37.1016V14.8867Z" fill="#FFBB5C"/>
<mask id="mask0_1042_97052" style="mask-type:luminance" maskUnits="userSpaceOnUse" x="37" y="14" width="25" height="25">
<path d="M37.1016 14.8867H56.4839C57.7361 14.8867 58.937 15.3842 59.8225 16.2696C60.708 17.1551 61.2054 18.3561 61.2054 19.6083V38.9906H37.1016V14.8867Z" fill="white"/>
</mask>
<g mask="url(#mask0_1042_97052)">
<path d="M36.8281 14.9492V15.2329L37.1158 14.9492H36.8281Z" fill="white" stroke="white" stroke-width="0.806419" stroke-miterlimit="10"/>
<path d="M56.5935 14.9492L36.8281 34.7146V35.279L57.158 14.9492H56.5935Z" fill="white" stroke="white" stroke-width="0.806419" stroke-miterlimit="10"/>
<path d="M48.5736 14.9492L36.8281 26.6947V27.2632L49.1421 14.9492H48.5736Z" fill="white" stroke="white" stroke-width="0.806419" stroke-miterlimit="10"/>
<path d="M40.5538 14.9492L36.8281 18.6749V19.2434L41.1223 14.9492H40.5538Z" fill="white" stroke="white" stroke-width="0.806419" stroke-miterlimit="10"/>
<path d="M60.8873 39.0063V38.7227L60.5996 39.0063H60.8873Z" fill="white" stroke="white" stroke-width="0.806419" stroke-miterlimit="10"/>
<path d="M57.1603 39.0011L60.886 35.2754V34.7109L56.5918 39.0011H57.1603Z" fill="white" stroke="white" stroke-width="0.806419" stroke-miterlimit="10"/>
<path d="M49.1427 39.0053L60.8882 27.2638V26.6953L48.5742 39.0053H49.1427Z" fill="white" stroke="white" stroke-width="0.806419" stroke-miterlimit="10"/>
<path d="M60.8846 18.6719L40.5508 39.0017H41.1193L60.8846 19.2404V18.6719Z" fill="white" stroke="white" stroke-width="0.806419" stroke-miterlimit="10"/>
</g>
<path d="M16.5767 14.8867H35.842V38.9906H11.7422V19.7252C11.7422 18.4427 12.2514 17.2126 13.1579 16.3053C14.0645 15.398 15.2941 14.8878 16.5767 14.8867Z" fill="#B2DD66"/>
<mask id="mask1_1042_97052" style="mask-type:luminance" maskUnits="userSpaceOnUse" x="11" y="14" width="25" height="25">
<path d="M16.5043 14.8633H35.8383V38.9873H11.7344V19.6333C11.7344 18.3682 12.2369 17.1549 13.1315 16.2604C14.026 15.3658 15.2393 14.8633 16.5043 14.8633Z" fill="white"/>
</mask>
<g mask="url(#mask1_1042_97052)">
<path d="M11.7344 24.3477V26.9484V27.9806H14.0367L13.3835 26.9484L11.7344 24.3477Z" fill="white"/>
<path d="M11.7344 22.7265L14.0367 19.0977H11.7344V22.7265Z" fill="white"/>
<path d="M21.4863 19.0977L23.7887 22.7265L26.095 19.0977H23.7887H21.4863Z" fill="white"/>
<path d="M16.0981 26.9455L17.7634 29.5704L19.4286 26.9455L20.0657 25.9375H15.457L16.0981 26.9455Z" fill="white"/>
<path d="M19.4321 14.8828H16.1016L17.7668 17.5117L19.4321 14.8828Z" fill="white"/>
<path d="M15.457 22.7579H20.0657L17.7634 19.125L15.457 22.7579Z" fill="white"/>
<path d="M23.7887 14.8828H22.1395L21.4863 15.915H23.7887H26.095L25.4378 14.8828H23.7887Z" fill="white"/>
<path d="M23.7887 24.3477L22.1395 26.9484L21.4863 27.9806H23.7887H26.095L25.4378 26.9484L23.7887 24.3477Z" fill="white"/>
<path d="M34.1923 14.8828L33.5391 15.915H35.8414V14.8828H34.1923Z" fill="white"/>
<path d="M35.8414 22.7265V19.0977H33.5391L35.8414 22.7265Z" fill="white"/>
<path d="M28.1489 26.9455L29.8142 29.5704L31.4794 26.9455L32.1165 25.9375H27.5078L28.1489 26.9455Z" fill="white"/>
<path d="M31.4848 14.8828H28.1543L29.8196 17.5117L31.4848 14.8828Z" fill="white"/>
<path d="M27.5078 22.7579H32.1165L29.8142 19.125L27.5078 22.7579Z" fill="white"/>
<path d="M11.7344 39.007H13.3835L11.7344 36.4062V39.007Z" fill="white"/>
<path d="M11.7344 34.797L14.0367 31.1641H11.7344V34.797Z" fill="white"/>
<path d="M22.1367 39.007H23.7858H25.435L23.7858 36.4062L22.1367 39.007Z" fill="white"/>
<path d="M21.4863 31.1641L23.7887 34.797L26.095 31.1641H23.7887H21.4863Z" fill="white"/>
<path d="M16.0981 39.0079H19.4286L20.0657 38.0039H15.457L16.0981 39.0079Z" fill="white"/>
<path d="M15.457 34.8164H20.0657L17.7634 31.1875L15.457 34.8164Z" fill="white"/>
<path d="M33.5391 27.9806H35.8414V26.9484V24.3477L34.1923 26.9484L33.5391 27.9806Z" fill="white"/>
<path d="M35.8405 39.007V36.4062L34.1914 39.007H35.8405Z" fill="white"/>
<path d="M35.8414 34.797V31.1641H33.5391L35.8414 34.797Z" fill="white"/>
<path d="M28.1489 39.0079H31.4794L32.1165 38.0039H27.5078L28.1489 39.0079Z" fill="white"/>
<path d="M27.5078 34.8164H32.1165L29.8142 31.1875L27.5078 34.8164Z" fill="white"/>
</g>
<mask id="mask2_1042_97052" style="mask-type:luminance" maskUnits="userSpaceOnUse" x="37" y="40" width="25" height="25">
<path d="M37.1016 40.2266H61.2054V59.6653C61.2054 60.9026 60.7139 62.0892 59.8391 62.9641C58.9642 63.8389 57.7776 64.3304 56.5403 64.3304H37.1016V40.2266Z" fill="white"/>
</mask>
<g mask="url(#mask2_1042_97052)">
<path d="M60.3809 42.4384C60.3809 42.879 60.5559 43.3016 60.8674 43.6131C61.179 43.9246 61.6015 44.0997 62.0421 44.0997V40.7813C61.6022 40.7812 61.1803 40.9557 60.8688 41.2664C60.5574 41.5771 60.3819 41.9986 60.3809 42.4384Z" fill="white"/>
<path d="M60.3809 55.1611C60.3809 55.6017 60.5559 56.0242 60.8674 56.3358C61.179 56.6473 61.6015 56.8223 62.0421 56.8223V53.5039C61.6022 53.5039 61.1803 53.6784 60.8688 53.989C60.5574 54.2997 60.3819 54.7212 60.3809 55.1611Z" fill="white"/>
<path d="M60.3809 61.5206C60.3809 61.9612 60.5559 62.3837 60.8674 62.6953C61.179 63.0068 61.6015 63.1818 62.0421 63.1818V59.8594C61.6015 59.8594 61.179 60.0344 60.8674 60.3459C60.5559 60.6575 60.3809 61.08 60.3809 61.5206Z" fill="white"/>
<path d="M60.3809 48.8058C60.3809 49.2463 60.5559 49.6689 60.8674 49.9804C61.179 50.292 61.6015 50.467 62.0421 50.467V47.1445C61.6015 47.1445 61.179 47.3196 60.8674 47.6311C60.5559 47.9426 60.3809 48.3652 60.3809 48.8058Z" fill="white"/>
<path d="M42.7086 40.9364C43.1492 40.9364 43.5717 40.7614 43.8833 40.4499C44.1948 40.1383 44.3698 39.7158 44.3698 39.2752C44.3698 39.2147 44.3698 39.1542 44.3698 39.0938H41.0675C41.0408 39.3259 41.0635 39.561 41.1342 39.7838C41.205 40.0065 41.3221 40.2116 41.4779 40.3857C41.6338 40.5599 41.8247 40.699 42.0383 40.7939C42.2518 40.8888 42.483 40.9374 42.7167 40.9364H42.7086Z" fill="white"/>
<path d="M55.5914 40.9364C56.032 40.9364 56.4545 40.7614 56.7661 40.4499C57.0776 40.1383 57.2526 39.7158 57.2526 39.2752C57.2558 39.2148 57.2558 39.1542 57.2526 39.0938H53.9504C53.9236 39.3259 53.9463 39.561 54.017 39.7838C54.0878 40.0065 54.2049 40.2116 54.3608 40.3857C54.5166 40.5599 54.7076 40.699 54.9211 40.7939C55.1346 40.8888 55.3658 40.9374 55.5995 40.9364H55.5914Z" fill="white"/>
<path d="M37.9249 61.5206C37.9249 61.08 37.7499 60.6575 37.4383 60.3459C37.1268 60.0344 36.7043 59.8594 36.2637 59.8594V63.1818C36.7043 63.1818 37.1268 63.0068 37.4383 62.6953C37.7499 62.3837 37.9249 61.9612 37.9249 61.5206Z" fill="white"/>
<path d="M37.9249 42.4425C37.9249 42.0019 37.7499 41.5793 37.4383 41.2678C37.1268 40.9563 36.7043 40.7812 36.2637 40.7812V44.0997C36.7036 44.0997 37.1255 43.9252 37.4369 43.6145C37.7483 43.3039 37.9238 42.8824 37.9249 42.4425Z" fill="white"/>
<path d="M37.9249 48.8058C37.9249 48.3652 37.7499 47.9426 37.4383 47.6311C37.1268 47.3196 36.7043 47.1445 36.2637 47.1445V50.4831C36.4832 50.4831 36.7005 50.4396 36.9031 50.3551C37.1058 50.2706 37.2896 50.1468 37.4441 49.9909C37.5985 49.8349 37.7206 49.6498 37.8031 49.4464C37.8856 49.243 37.927 49.0253 37.9249 48.8058Z" fill="white"/>
<path d="M37.9249 55.1612C37.9249 54.7206 37.7499 54.2981 37.4383 53.9866C37.1268 53.675 36.7043 53.5 36.2637 53.5V56.8224C36.7043 56.8224 37.1268 56.6474 37.4383 56.3359C37.7499 56.0243 37.9249 55.6018 37.9249 55.1612Z" fill="white"/>
<path d="M55.5944 63.3828C55.1856 63.3833 54.7914 63.5346 54.4871 63.8076C54.1829 64.0806 53.99 64.4562 53.9453 64.8626H57.2476C57.2029 64.4556 57.0094 64.0794 56.7043 63.8063C56.3992 63.5331 56.0039 63.3824 55.5944 63.3828Z" fill="white"/>
<path d="M42.7058 63.3828C42.297 63.3833 41.9027 63.5346 41.5985 63.8076C41.2942 64.0806 41.1013 64.4562 41.0566 64.8626H44.3589C44.3142 64.4556 44.1207 64.0794 43.8156 63.8063C43.5105 63.5331 43.1153 63.3824 42.7058 63.3828Z" fill="white"/>
<path d="M49.1534 56.8264C50.0709 56.8264 50.8146 56.0826 50.8146 55.1651C50.8146 54.2477 50.0709 53.5039 49.1534 53.5039C48.2359 53.5039 47.4922 54.2477 47.4922 55.1651C47.4922 56.0826 48.2359 56.8264 49.1534 56.8264Z" fill="white"/>
<path d="M49.1534 63.1818C50.0709 63.1818 50.8146 62.4381 50.8146 61.5206C50.8146 60.6031 50.0709 59.8594 49.1534 59.8594C48.2359 59.8594 47.4922 60.6031 47.4922 61.5206C47.4922 62.4381 48.2359 63.1818 49.1534 63.1818Z" fill="white"/>
<path d="M42.7042 47.3029C43.6217 47.3029 44.3654 46.5592 44.3654 45.6417C44.3654 44.7242 43.6217 43.9805 42.7042 43.9805C41.7867 43.9805 41.043 44.7242 41.043 45.6417C41.043 46.5592 41.7867 47.3029 42.7042 47.3029Z" fill="white"/>
<path d="M49.1534 50.467C50.0709 50.467 50.8146 49.7232 50.8146 48.8058C50.8146 47.8883 50.0709 47.1445 49.1534 47.1445C48.2359 47.1445 47.4922 47.8883 47.4922 48.8058C47.4922 49.7232 48.2359 50.467 49.1534 50.467Z" fill="white"/>
<path d="M42.7042 53.6623C43.6217 53.6623 44.3654 52.9185 44.3654 52.0011C44.3654 51.0836 43.6217 50.3398 42.7042 50.3398C41.7867 50.3398 41.043 51.0836 41.043 52.0011C41.043 52.9185 41.7867 53.6623 42.7042 53.6623Z" fill="white"/>
<path d="M42.7042 60.0256C43.6217 60.0256 44.3654 59.2818 44.3654 58.3644C44.3654 57.4469 43.6217 56.7031 42.7042 56.7031C41.7867 56.7031 41.043 57.4469 41.043 58.3644C41.043 59.2818 41.7867 60.0256 42.7042 60.0256Z" fill="white"/>
<path d="M55.5948 53.6623C56.5123 53.6623 57.256 52.9185 57.256 52.0011C57.256 51.0836 56.5123 50.3398 55.5948 50.3398C54.6774 50.3398 53.9336 51.0836 53.9336 52.0011C53.9336 52.9185 54.6774 53.6623 55.5948 53.6623Z" fill="white"/>
<path d="M55.5948 47.3029C56.5123 47.3029 57.256 46.5592 57.256 45.6417C57.256 44.7242 56.5123 43.9805 55.5948 43.9805C54.6774 43.9805 53.9336 44.7242 53.9336 45.6417C53.9336 46.5592 54.6774 47.3029 55.5948 47.3029Z" fill="white"/>
<path d="M49.1534 44.1037C50.0709 44.1037 50.8146 43.3599 50.8146 42.4425C50.8146 41.525 50.0709 40.7812 49.1534 40.7812C48.2359 40.7812 47.4922 41.525 47.4922 42.4425C47.4922 43.3599 48.2359 44.1037 49.1534 44.1037Z" fill="white"/>
<path d="M55.5948 60.0256C56.5123 60.0256 57.256 59.2818 57.256 58.3644C57.256 57.4469 56.5123 56.7031 55.5948 56.7031C54.6774 56.7031 53.9336 57.4469 53.9336 58.3644C53.9336 59.2818 54.6774 60.0256 55.5948 60.0256Z" fill="white"/>
</g>
<mask id="mask3_1042_97052" style="mask-type:luminance" maskUnits="userSpaceOnUse" x="11" y="40" width="25" height="25">
<path d="M11.7422 40.2266H35.8461V64.3304H16.5888C15.3055 64.3304 14.0748 63.8207 13.1674 62.9133C12.26 62.0059 11.7503 60.7752 11.7503 59.4919V40.2266H11.7422Z" fill="white"/>
</mask>
<g mask="url(#mask3_1042_97052)">
<path d="M13.6788 58.9517C13.6821 58.8422 13.6631 58.7332 13.6229 58.6313C13.5827 58.5294 13.5221 58.4367 13.4449 58.359L10.4531 55.3672V57.6534L11.7515 58.9517L10.4531 60.2501V62.5363L13.4449 59.5444C13.5221 59.4667 13.5827 59.3741 13.6229 59.2722C13.6631 59.1702 13.6821 59.0612 13.6788 58.9517Z" fill="white"/>
<path d="M13.4449 46.197C13.5957 46.0357 13.6796 45.8231 13.6796 45.6023C13.6796 45.3815 13.5957 45.1689 13.4449 45.0076L10.4531 42.0117V44.2979L11.7515 45.5963L10.4531 46.8946V49.1808L13.4449 46.197Z" fill="white"/>
<path d="M32.3434 39.5064L37.1376 44.3006V42.0103L34.053 38.9258H32.1055C32.1044 39.0335 32.1248 39.1404 32.1657 39.2402C32.2065 39.3399 32.267 39.4304 32.3434 39.5064Z" fill="white"/>
<path d="M32.3403 51.6923C32.2635 51.7674 32.2025 51.8571 32.1608 51.9562C32.1191 52.0552 32.0977 52.1615 32.0977 52.2689C32.0977 52.3764 32.1191 52.4827 32.1608 52.5817C32.2025 52.6807 32.2635 52.7704 32.3403 52.8455L37.1345 57.6397V55.3616L34.0499 52.277L37.1345 49.1924V46.9062L32.3403 51.6923Z" fill="white"/>
<path d="M32.3434 65.0403C32.2674 65.1158 32.2073 65.2056 32.1664 65.3046C32.1256 65.4036 32.1049 65.5098 32.1055 65.6168H34.053L37.1375 62.5323V60.2461L32.3434 65.0403Z" fill="white"/>
<path d="M31.7648 45.6073L25.6723 51.6918C25.5955 51.7669 25.5345 51.8566 25.4928 51.9556C25.4512 52.0546 25.4297 52.1609 25.4297 52.2684C25.4297 52.3758 25.4512 52.4821 25.4928 52.5811C25.5345 52.6802 25.5955 52.7699 25.6723 52.845L31.7648 58.9496L25.6723 65.042C25.5964 65.1175 25.5362 65.2074 25.4954 65.3064C25.4545 65.4054 25.4338 65.5115 25.4344 65.6186H27.3819L33.4583 59.5423C33.6091 59.3809 33.693 59.1684 33.693 58.9475C33.693 58.7267 33.6091 58.5141 33.4583 58.3528L27.3819 52.2764L33.4583 46.2001C33.615 46.0377 33.7026 45.8209 33.7026 45.5952C33.7026 45.3696 33.615 45.1528 33.4583 44.9904L27.3819 38.9141H25.4344C25.4338 39.0212 25.4545 39.1273 25.4954 39.2263C25.5362 39.3253 25.5964 39.4152 25.6723 39.4907L31.7648 45.6073Z" fill="white"/>
<path d="M27.0224 58.9533C27.0257 58.8438 27.0067 58.7348 26.9665 58.6329C26.9263 58.531 26.8657 58.4383 26.7885 58.3606L20.7121 52.2842L26.7885 46.2079C26.9452 46.0455 27.0328 45.8287 27.0328 45.6031C27.0328 45.3774 26.9452 45.1606 26.7885 44.9982L20.7121 38.9219H18.7566C18.7559 39.029 18.7767 39.1351 18.8175 39.2341C18.8584 39.3331 18.9185 39.423 18.9945 39.4985L25.087 45.591L18.9985 51.6956C18.9217 51.7707 18.8607 51.8603 18.819 51.9594C18.7773 52.0584 18.7559 52.1647 18.7559 52.2721C18.7559 52.3796 18.7773 52.4859 18.819 52.5849C18.8607 52.6839 18.9217 52.7736 18.9985 52.8487L25.095 58.9533L18.9985 65.0458C18.9225 65.1213 18.8624 65.2112 18.8215 65.3102C18.7807 65.4092 18.76 65.5153 18.7606 65.6224H20.7081L26.7845 59.546C26.8624 59.4687 26.9237 59.3762 26.9646 59.2742C27.0055 59.1723 27.0252 59.0631 27.0224 58.9533Z" fill="white"/>
<path d="M20.3725 58.9489C20.3758 58.8394 20.3568 58.7304 20.3166 58.6285C20.2764 58.5266 20.2158 58.4339 20.1386 58.3562L14.0421 52.2758L20.1185 46.1994C20.2751 46.0371 20.3627 45.8203 20.3627 45.5946C20.3627 45.369 20.2751 45.1522 20.1185 44.9898L14.0421 38.9336H12.0946C12.094 39.0407 12.1147 39.1468 12.1555 39.2458C12.1964 39.3448 12.2565 39.4347 12.3325 39.5102L18.425 45.6027L12.3325 51.6911C12.2557 51.7662 12.1946 51.8559 12.153 51.955C12.1113 52.054 12.0898 52.1603 12.0898 52.2677C12.0898 52.3752 12.1113 52.4815 12.153 52.5805C12.1946 52.6795 12.2557 52.7692 12.3325 52.8443L18.425 58.9489L12.3325 65.0414C12.2565 65.1169 12.1964 65.2068 12.1555 65.3058C12.1147 65.4048 12.094 65.5109 12.0946 65.618H14.0421L20.1185 59.5416C20.1993 59.4656 20.2636 59.3738 20.3073 59.2718C20.351 59.1698 20.3732 59.0599 20.3725 58.9489Z" fill="white"/>
</g>
<path d="M37.4872 12.7156C37.9589 9.64719 38.8742 6.03846 41.1161 3.78452C43.4547 1.42978 46.9787 4.0708 45.7247 7.0102C44.3216 10.3044 40.1484 11.7197 36.8944 11.9374C36.088 11.9898 36.088 13.2237 36.8944 13.1672C40.7169 12.9092 44.4748 11.3891 46.5715 8.03839C47.9988 5.76025 47.2852 2.76843 44.5554 1.92976C39.0234 0.220149 36.8945 8.44966 36.2775 12.4132C36.1767 13.1793 37.3662 13.5019 37.4872 12.7156Z" fill="#2E2E31"/>
<path d="M35.8828 12.7156C35.411 9.64719 34.4957 6.03846 32.2539 3.78452C29.9153 1.42978 26.3912 4.0708 27.6452 7.0102C29.0484 10.3044 33.2216 11.7197 36.4755 11.9374C37.2819 11.9898 37.2819 13.2237 36.4755 13.1672C32.6531 12.9092 28.8951 11.3891 26.7985 8.03839C25.3711 5.76025 26.0848 2.76843 28.8145 1.92976C34.3465 0.220149 36.4755 8.44966 37.0924 12.4132C37.1932 13.1793 36.0037 13.5019 35.8828 12.7156Z" fill="#2E2E31"/>
</g>
<defs>
<clipPath id="clip0_1042_97052">
<rect width="352.429" height="81.8516" fill="white" transform="translate(0.759766 0.0820312)"/>
</clipPath>
</defs>
</svg>
