<svg width="102" height="101" viewBox="0 0 102 101" fill="none" xmlns="http://www.w3.org/2000/svg">
<circle cx="52.9746" cy="48.043" r="48" fill="#FAF8FF"/>
<path fill-rule="evenodd" clip-rule="evenodd" d="M42.6314 33.8207C42.6314 31.0234 43.7426 28.3407 45.7206 26.3627C47.6986 24.3847 50.3814 23.2734 53.1787 23.2734C55.976 23.2734 58.6588 24.3847 60.6368 26.3627C62.6148 28.3407 63.726 31.0234 63.726 33.8207C63.726 36.6181 62.6148 39.3008 60.6368 41.2788C58.6588 43.2568 55.976 44.3681 53.1787 44.3681C50.3814 44.3681 47.6986 43.2568 45.7206 41.2788C43.7426 39.3008 42.6314 36.6181 42.6314 33.8207ZM42.6314 49.6417C39.1348 49.6417 35.7813 51.0307 33.3088 53.5033C30.8363 55.9758 29.4473 59.3292 29.4473 62.8258C29.4473 64.9238 30.2807 66.9359 31.7642 68.4194C33.2477 69.9029 35.2598 70.7363 37.3577 70.7363H68.9997C71.0977 70.7363 73.1097 69.9029 74.5932 68.4194C76.0767 66.9359 76.9102 64.9238 76.9102 62.8258C76.9102 59.3292 75.5211 55.9758 73.0486 53.5033C70.5761 51.0307 67.2227 49.6417 63.726 49.6417H42.6314Z" fill="#2E2E31"/>
<g filter="url(#filter0_d_1042_96677)">
<rect x="4.97461" y="62.043" width="34.0001" height="34.0001" rx="17.0001" fill="white"/>
</g>
<path d="M26.9183 72.3081H29.9615C31.0174 72.3081 31.8814 73.148 31.8814 74.1747V85.3746C31.8814 86.4012 31.0174 87.2412 29.9615 87.2412H14.6016C13.5456 87.2412 12.6816 86.4012 12.6816 85.3746V74.1747C12.6816 73.148 13.5456 72.3081 14.6016 72.3081H17.6448L18.8256 71.0481C19.1904 70.6654 19.7088 70.4414 20.2464 70.4414H24.3167C24.5824 70.4416 24.8451 70.4956 25.0881 70.6001C25.3311 70.7045 25.549 70.8571 25.7279 71.0481L26.9183 72.3081Z" fill="#B63457"/>
<path d="M22.2816 83.6413C24.2698 83.6413 25.8816 82.0296 25.8816 80.0414C25.8816 78.0532 24.2698 76.4414 22.2816 76.4414C20.2934 76.4414 18.6816 78.0532 18.6816 80.0414C18.6816 82.0296 20.2934 83.6413 22.2816 83.6413Z" fill="white"/>
<path d="M22.2847 82.4406C23.6102 82.4406 24.6847 81.3661 24.6847 80.0406C24.6847 78.7151 23.6102 77.6406 22.2847 77.6406C20.9593 77.6406 19.8848 78.7151 19.8848 80.0406C19.8848 81.3661 20.9593 82.4406 22.2847 82.4406Z" fill="#B63457"/>
<defs>
<filter id="filter0_d_1042_96677" x="0.974609" y="58.043" width="42" height="42" filterUnits="userSpaceOnUse" color-interpolation-filters="sRGB">
<feFlood flood-opacity="0" result="BackgroundImageFix"/>
<feColorMatrix in="SourceAlpha" type="matrix" values="0 0 0 0 0 0 0 0 0 0 0 0 0 0 0 0 0 0 127 0" result="hardAlpha"/>
<feOffset/>
<feGaussianBlur stdDeviation="2"/>
<feComposite in2="hardAlpha" operator="out"/>
<feColorMatrix type="matrix" values="0 0 0 0 0 0 0 0 0 0 0 0 0 0 0 0 0 0 0.25 0"/>
<feBlend mode="normal" in2="BackgroundImageFix" result="effect1_dropShadow_1042_96677"/>
<feBlend mode="normal" in="SourceGraphic" in2="effect1_dropShadow_1042_96677" result="shape"/>
</filter>
</defs>
</svg>
